<?xml version="1.0" encoding="utf-8"?>
<!-- Generator: Adobe Illustrator 18.0.0, SVG Export Plug-In . SVG Version: 6.00 Build 0)  -->
<!DOCTYPE svg PUBLIC "-//W3C//DTD SVG 1.1//EN" "http://www.w3.org/Graphics/SVG/1.1/DTD/svg11.dtd">
<svg version="1.1" xmlns="http://www.w3.org/2000/svg" xmlns:xlink="http://www.w3.org/1999/xlink" x="0px" y="0px" width="179.2px"
	 height="202px" viewBox="0 0 179.2 202" enable-background="new 0 0 179.2 202" xml:space="preserve">
<g id="Layer_1">
	<g id="Layer_24">
	</g>
</g>
<g id="Layer_36" display="none">
</g>
<g id="Layer_14">
</g>
<g id="Layer_35">
</g>
<g id="Layer_2" display="none">
</g>
<g id="Layer_4">
</g>
<g id="Layer_7">
</g>
<g id="Layer_6">
</g>
<g id="Layer_8">
</g>
<g id="Layer_5">
</g>
<g id="Layer_11">
</g>
<g id="Layer_5_copy">
	<g id="Layer_10">
	</g>
</g>
<g id="Layer_13">
</g>
<g id="Layer_12" display="none">
</g>
<g id="Layer_19">
	<g id="Layer_20">
	</g>
	<g id="Layer_31">
	</g>
	<g id="Layer_26" display="none">
	</g>
	<g id="Layer_29">
	</g>
	<g id="Layer_28">
	</g>
	<g id="Layer_37">
	</g>
	<g id="Layer_21">
	</g>
</g>
<g id="Layer_18">
</g>
<g id="Layer_34">
</g>
<g id="Layer_23">
	<g id="Layer_25">
	</g>
</g>
<g id="Layer_22">
</g>
<g id="Layer_27">
</g>
<g id="Layer_17">
</g>
<g id="Layer_3">
</g>
<g id="Layer_15">
	<g>
		<g>
			<circle fill="#83C167" cx="89.6" cy="101" r="19.7"/>
		</g>
		<g>
			<path fill="#47A6BD" d="M89.6,202c-10.6,0-20.3-10.9-27.3-30.8c-6.6-18.8-10.2-43.7-10.2-70.2s3.6-51.4,10.2-70.2
				C69.3,10.9,79,0,89.6,0c10.6,0,20.3,10.9,27.3,30.8c6.6,18.8,10.2,43.7,10.2,70.2s-3.6,51.4-10.2,70.2
				C109.9,191.1,100.2,202,89.6,202z M89.6,6.5c-15,0-31,38-31,94.5s16,94.5,31,94.5c15,0,31-38,31-94.5S104.6,6.5,89.6,6.5z"/>
		</g>
		<g>
			<path fill="#47A6BD" d="M153.2,161.4c-21.2,0-52-10.5-82.3-28C48,120.2,28.2,104.6,15.2,89.5c-13.7-16-18.4-29.8-13-39
				C4.8,46,11,40.6,26,40.6c21.2,0,52,10.5,82.3,28c22.9,13.2,42.7,28.8,55.7,43.9c13.7,16,18.4,29.8,13,39
				C174.5,156,168.2,161.4,153.2,161.4z M26,47.1c-6.6,0-15.1,1.2-18.3,6.7c-3.8,6.5,0.7,18,12.4,31.6c12.5,14.6,31.7,29.7,54,42.6
				c29,16.7,59.3,27.1,79.1,27.1c6.6,0,15.1-1.2,18.3-6.7c3.8-6.5-0.7-18-12.4-31.6c-12.5-14.6-31.7-29.7-54-42.6
				C76.2,57.4,45.9,47.1,26,47.1z"/>
		</g>
		<g>
			<path fill="#47A6BD" d="M26,161.4c-15,0-21.3-5.4-23.9-9.9c-5.3-9.2-0.7-23.1,13-39c13-15.1,32.8-30.7,55.7-43.9
				c30.3-17.5,61.1-28,82.3-28c15,0,21.3,5.4,23.9,9.9c5.3,9.2,0.7,23.1-13,39c-13,15.1-32.8,30.7-55.7,43.9
				C78,151,47.2,161.4,26,161.4z M153.2,47.1c-19.8,0-50.1,10.4-79.1,27.1c-22.3,12.9-41.5,28-54,42.6C8.5,130.2,4,141.7,7.7,148.3
				c3.2,5.5,11.7,6.7,18.3,6.7c19.8,0,50.1-10.4,79.1-27.1c22.3-12.9,41.5-28,54-42.6c11.6-13.5,16.1-25,12.4-31.6
				C168.3,48.2,159.8,47.1,153.2,47.1z"/>
		</g>
		<g>
			<circle fill="#1E7589" cx="106.5" cy="16.3" r="6.3"/>
		</g>
		<g>
			<circle fill="#1E7589" cx="42.9" cy="156.3" r="6.3"/>
		</g>
		<g>
			<circle fill="#1E7589" cx="169.4" cy="125" r="6.3"/>
		</g>
	</g>
</g>
<g id="Layer_30">
</g>
<g id="Layer_16">
</g>
<g id="Layer_32">
</g>
<g id="Layer_33">
</g>
</svg>
