<?xml version="1.0" encoding="utf-8"?>
<!-- Generator: Adobe Illustrator 18.0.0, SVG Export Plug-In . SVG Version: 6.00 Build 0)  -->
<!DOCTYPE svg PUBLIC "-//W3C//DTD SVG 1.1//EN" "http://www.w3.org/Graphics/SVG/1.1/DTD/svg11.dtd">
<svg version="1.1" xmlns="http://www.w3.org/2000/svg" xmlns:xlink="http://www.w3.org/1999/xlink" x="0px" y="0px" width="359.6px"
	 height="455px" viewBox="0 0 359.6 455" enable-background="new 0 0 359.6 455" xml:space="preserve">
<g id="Layer_1">
	<g id="Layer_24">
	</g>
</g>
<g id="Layer_36" display="none">
</g>
<g id="Layer_14">
</g>
<g id="Layer_35">
</g>
<g id="Layer_2" display="none">
</g>
<g id="Layer_4">
</g>
<g id="Layer_7">
</g>
<g id="Layer_6">
</g>
<g id="Layer_8">
</g>
<g id="Layer_5">
</g>
<g id="Layer_11">
</g>
<g id="Layer_5_copy">
	<g id="Layer_10">
	</g>
</g>
<g id="Layer_13">
</g>
<g id="Layer_12" display="none">
</g>
<g id="Layer_19">
	<g id="Layer_20">
	</g>
	<g id="Layer_31">
	</g>
	<g id="Layer_26" display="none">
	</g>
	<g id="Layer_29">
	</g>
	<g id="Layer_28">
	</g>
	<g id="Layer_37">
	</g>
	<g id="Layer_21">
	</g>
</g>
<g id="Layer_18">
</g>
<g id="Layer_34">
	<path fill="#C7E9F1" stroke="#314453" stroke-width="30" stroke-miterlimit="10" d="M321.5,440H38.1C25.3,440,15,429.7,15,416.9
		V38.1C15,25.3,25.3,15,38.1,15h283.4c12.7,0,23.1,10.3,23.1,23.1v378.8C344.6,429.7,334.2,440,321.5,440z"/>
	<g>
		<g>
			<polygon fill="#59C4DC" points="185.2,253.5 207.7,319.4 230.2,253.5 			"/>
			<path fill="#59C4DC" d="M212.9,310.8l7.9,5.9c2.2,1.7,1.1,5.2-1.7,5.2H213c-2.5,0-4.8-1.6-5.6-4.1l-2.7-8c-1-3,2.7-5.2,4.8-2.9
				l3,3.4C212.6,310.5,212.7,310.7,212.9,310.8z"/>
			<ellipse fill="none" cx="181.4" cy="142.1" rx="2.2" ry="1.9"/>
			<circle fill="#59C4DC" cx="184.8" cy="241.9" r="48.1"/>
			<circle fill="#59C4DC" cx="183.6" cy="154.8" r="50.1"/>
			<circle fill="#59C4DC" cx="138.2" cy="168.9" r="8.3"/>
			<circle fill="#59C4DC" cx="228.7" cy="168.9" r="8.3"/>
			<circle fill="#1D758A" cx="158.2" cy="136.7" r="6.4"/>
			<circle fill="#1D758A" cx="212.2" cy="136.7" r="6.4"/>
			
				<line fill="none" stroke="#C7E9F1" stroke-width="4" stroke-linecap="round" stroke-miterlimit="10" x1="174.5" y1="160.5" x2="192.5" y2="160.5"/>
			<circle fill="#C7E9F1" cx="157.2" cy="135.2" r="3.5"/>
			<circle fill="#C7E9F1" cx="210.9" cy="135.2" r="3.5"/>
			<ellipse fill="#9EDBEA" cx="157.4" cy="149.6" rx="10.4" ry="2.5"/>
			<ellipse fill="#9EDBEA" cx="211" cy="149.6" rx="10.4" ry="2.5"/>
			<ellipse fill="#27ABCA" cx="183.6" cy="138.2" rx="7.9" ry="4.2"/>
			<circle fill="#59C4DC" cx="221.7" cy="211.2" r="16.8"/>
			<polygon fill="#59C4DC" points="227,227.1 234,199.8 262.1,227.1 254.1,238.6 			"/>
			<polygon fill="#59C4DC" points="184.1,253.5 161.2,319.4 138.2,253.5 			"/>
			<path fill="#F7F7F7" d="M230.4,258.5h-91.3c1.4,6,3.3,8.3,5.6,11.8c12.5,0,23,8.4,26.6,19.7c4.3,1.2,8.8,2,13.4,2
				c4.6,0,9.1-0.6,13.3-1.8c3.6-11.3,14.2-19.8,26.7-19.8C227.1,266.7,229,264.5,230.4,258.5z"/>
			<circle fill="#27ABCA" cx="208.8" cy="227.8" r="2.7"/>
			<circle fill="#27ABCA" cx="161.6" cy="227.8" r="2.7"/>
			<path fill="#59C4DC" d="M155.9,310.8l-8.1,5.9c-2.3,1.7-1.1,5.2,1.7,5.2h6.2c2.6,0,4.9-1.6,5.8-4.1l2.8-8c1-3-2.8-5.2-4.9-2.9
				l-3,3.4C156.2,310.5,156.1,310.7,155.9,310.8z"/>
			<circle fill="#59C4DC" cx="260.7" cy="234.2" r="8.6"/>
			<circle fill="#59C4DC" cx="149" cy="213.5" r="16.8"/>
			<polygon fill="#59C4DC" points="143.6,229.4 136.7,202.1 108.6,229.4 116.5,240.9 			"/>
			<circle fill="#59C4DC" cx="110" cy="236.5" r="8.6"/>
			<circle fill="#1D758A" cx="180.8" cy="139.6" r="2.5"/>
			<circle fill="#1D758A" cx="186.7" cy="139.6" r="2.5"/>
		</g>
		<path fill="#F7C797" d="M130.5,263.4c-18.6,3-18.4,29.8-37,32.8c-1.4,0.2-3.2-0.5-4-1.5c-6.2-7.8-12.3-15.6-18.5-23.5
			c-0.8-1-0.1-1.8,1.2-2c18.6-3,18.4-29.8,37-32.8c1.4-0.2,3.2,0.5,4,1.5c6.2,7.8,12.3,15.6,18.5,23.5
			C132.5,262.4,131.9,263.2,130.5,263.4z"/>
		<g>
			<g>
				<g>
					<g>
						<path fill="#D2933B" d="M95.5,272.1c0.1,0.1,0.2,0.2,0.3,0.3c0.1,0.1,0.1,0.4-0.1,0.6c-2.1,2.5-4.2,4.6-6.3,5.9
							c-0.2,0.1-0.4,0-0.6-0.2c-0.1-0.2-0.2-0.3-0.3-0.5c-0.1-0.2-0.1-0.5,0.1-0.5c2.1-1,4.2-3,6.3-5.3
							C95.1,272,95.3,272,95.5,272.1z"/>
					</g>
					<g>
						<path fill="#D2933B" d="M97.5,273.7c0.1,0.1,0.2,0.2,0.3,0.3c0.1,0.1,0.1,0.4-0.1,0.6c-2.1,2.7-4.2,5.1-6.3,6.9
							c-0.2,0.1-0.4,0.1-0.6-0.1c-0.1-0.1-0.2-0.3-0.3-0.4c-0.1-0.2-0.1-0.4,0.1-0.6c2.1-1.6,4.2-3.9,6.3-6.5
							C97.1,273.7,97.4,273.6,97.5,273.7z"/>
					</g>
				</g>
				<g>
					<g>
						<path fill="#B77033" d="M94.2,277.5c0-0.1-0.1-0.2-0.1-0.2c-1.2,1.3-2.3,2.3-3.5,3.2c0,0-0.1,0.1-0.1,0.1
							c0.1,0.1,0.1,0.2,0.2,0.3c0.1,0.1,0.2,0.3,0.4,0.2c0.2-0.1,0.4-0.1,0.7-0.1c0.1,0,0.2,0,0.3,0c0.8-0.7,1.6-1.6,2.5-2.5
							c0,0,0,0,0-0.1C94.4,278.1,94.3,277.8,94.2,277.5z"/>
					</g>
					<g>
						<path fill="#B77033" d="M96.5,275.3c0.2-0.2,0.5-0.3,0.7-0.4c0.2-0.1,0.4-0.3,0.5-0.5c0.1-0.1,0.1-0.2,0.2-0.3
							c0-0.1,0-0.1-0.1-0.1c-0.1-0.1-0.2-0.2-0.3-0.3c-0.1-0.1-0.4,0-0.6,0.2c-0.7,0.9-1.4,1.7-2.1,2.5c0.2-0.1,0.3-0.3,0.5-0.4
							C95.7,275.8,96.1,275.6,96.5,275.3z"/>
					</g>
				</g>
				<g>
					<g>
						<path fill="#B77033" d="M94.3,277c-1.2,1.3-2.4,2.4-3.6,3.3c0,0,0.1,0.1,0.1,0.1c0.1,0.1,0.2,0.3,0.4,0.2
							c0.2-0.1,0.4-0.1,0.7-0.1c0.2,0,0.4,0,0.7,0c0.7-0.7,1.4-1.4,2.1-2.2c0-0.1-0.1-0.2-0.1-0.3C94.5,277.7,94.3,277.4,94.3,277z"
							/>
					</g>
					<g>
						<path fill="#B77033" d="M90.5,280.6c0,0.1,0,0.3,0.1,0.4c0.1,0.1,0.2,0.3,0.3,0.4c0,0,0,0,0,0
							C90.9,281.2,90.7,280.9,90.5,280.6C90.5,280.6,90.5,280.6,90.5,280.6z"/>
					</g>
					<g>
						<path fill="#B77033" d="M97.3,274.5c0.2-0.1,0.4-0.3,0.5-0.5c0,0,0,0,0,0c-0.1-0.1-0.2-0.2-0.3-0.2c-0.1-0.1-0.4,0-0.6,0.2
							c-0.4,0.5-0.8,1-1.3,1.5c0.3-0.2,0.6-0.4,0.9-0.6C96.8,274.7,97,274.6,97.3,274.5z"/>
					</g>
				</g>
				<g>
					<g>
						<path fill="#B77033" d="M92.1,276.9c1.2-1.1,2.4-2.4,3.6-3.8c0,0-0.1,0-0.1-0.1c-0.1-0.1-0.2-0.2-0.4,0
							c-0.2,0.1-0.5,0.2-0.7,0.3c-0.2,0-0.5,0.1-0.7,0.1c-0.7,0.7-1.4,1.4-2.1,2c0,0.1,0.1,0.3,0.1,0.4
							C91.9,276.2,92,276.5,92.1,276.9z"/>
					</g>
					<g>
						<path fill="#B77033" d="M95.9,272.8c0-0.2,0-0.3-0.1-0.4c-0.1-0.1-0.2-0.2-0.4-0.3c0,0,0,0,0,0
							C95.5,272.3,95.7,272.5,95.9,272.8C95.9,272.8,95.9,272.8,95.9,272.8z"/>
					</g>
					<g>
						<path fill="#B77033" d="M89.1,278.1c-0.2,0-0.4,0-0.5,0.1c0,0,0,0,0,0c0.1,0.2,0.2,0.3,0.3,0.5c0.1,0.2,0.4,0.3,0.6,0.2
							c0.4-0.3,0.8-0.5,1.3-0.9c-0.3,0.1-0.6,0.1-0.9,0.1C89.6,278.2,89.3,278.1,89.1,278.1z"/>
					</g>
				</g>
				<g>
					<path fill="#999999" d="M88.9,279.3c0.1,0.1,0.3,0.2,0.3,0.1c0.3-0.3,0.3-0.8-0.1-1.3c-0.3-0.5-0.8-0.7-1.3-0.7
						c-0.1,0-0.1,0.2-0.1,0.3C88.2,278.3,88.6,278.8,88.9,279.3z"/>
				</g>
				<g>
					<path fill="#999999" d="M90.9,282c0.1,0.1,0.3,0.1,0.4,0c0.2-0.4,0.2-0.9-0.1-1.2c-0.3-0.4-0.8-0.5-1.2-0.4
						c-0.1,0-0.2,0.2-0.1,0.3C90.3,281.2,90.6,281.6,90.9,282z"/>
				</g>
				<g>
					<path fill="#BF7C35" d="M90,273.5c0.7-0.4,1.6-0.3,2.2,0.3c0.5,0.6,0.5,1.6-0.2,2.2c-0.7,0.6-1.6,0.4-2.2-0.3
						C89.3,274.8,89.4,273.9,90,273.5z"/>
				</g>
				<g>
					<g>
						<path fill="#D2933B" d="M103.1,259.4c1-1.1,1.7-2.1,2.1-3.1c-0.2,0.3-0.4,0.6-0.6,0.9C104.1,257.9,103.6,258.6,103.1,259.4z"
							/>
						<path fill="#D2933B" d="M102.7,259.8c0.1-0.1,0.2-0.3,0.4-0.4c0-0.4,0-0.8,0-1.2c-0.1,0.2-0.3,0.3-0.5,0.5
							C102.6,259.1,102.6,259.5,102.7,259.8C102.6,259.9,102.7,259.8,102.7,259.8z"/>
						<path fill="#D2933B" d="M104.1,252.4c0.1-0.1,0.1-0.1,0.2-0.2C104.3,252.2,104.2,252.3,104.1,252.4z"/>
						<path fill="#D2933B" d="M105.4,253.4c0-0.1-0.1-0.2-0.1-0.3c-0.3,0.1-0.6,0.2-0.9,0.4c-0.1,0-0.1,0.1-0.2,0.1
							c0,0.1,0.1,0.2,0.1,0.3c0.1,0,0.2-0.1,0.2-0.1C104.9,253.6,105.2,253.5,105.4,253.4z"/>
						<path fill="#D2933B" d="M100.8,266.5c0.2-0.3,0.3-0.7,0.2-0.8c0,0-0.8-0.8-0.5-2.3c-0.2,0.2-0.4,0.4-0.6,0.6
							c-0.1,0.1-0.3,0.3-0.4,0.4c0,0-0.1,0.1-0.1,0.1c0,1,0.3,1.6,0.5,2c0.1,0.2,0.2,0.2,0.2,0.2
							C100.2,266.9,100.5,266.8,100.8,266.5z"/>
						<path fill="#D2933B" d="M105.4,255.5C105.4,255.5,105.4,255.5,105.4,255.5c0-0.1,0-0.2,0.1-0.3c-0.2,0.1-0.4,0.1-0.6,0.2
							c-0.2,0.1-0.3,0.2-0.5,0.2c0,0,0,0,0,0c0,0.1-0.1,0.3-0.1,0.4c0.3-0.2,0.6-0.4,1-0.5C105.3,255.6,105.4,255.6,105.4,255.5z"/>
						<path fill="#D2933B" d="M101.3,261.5c0.1-0.1,0.2-0.3,0.3-0.4c0,0,0,0,0,0c-0.1-0.2-0.4-0.2-0.7-0.1c-0.1,0-0.1,0-0.2,0
							c-0.2,0.3-0.3,0.5-0.5,0.7c0.3-0.1,0.5-0.1,0.8-0.2C101.1,261.5,101.2,261.5,101.3,261.5z"/>
						<path fill="#BF7C35" d="M101.5,261.1C101.5,261.1,101.6,261.1,101.5,261.1c0.3-0.4,0.7-0.8,1.1-1.2c0-0.4,0-0.8,0-1.2
							c-0.1,0.1-0.2,0.3-0.4,0.4c-0.6,0.6-1.2,1.3-1.6,1.9c0.1,0,0.1,0,0.2,0C101.1,260.9,101.4,260.8,101.5,261.1z"/>
						<path fill="#BF7C35" d="M103.1,259.4C103.1,259.4,103.1,259.4,103.1,259.4C103.1,259.4,103.1,259.4,103.1,259.4
							C103.1,259.4,103.1,259.4,103.1,259.4z"/>
						<path fill="#BF7C35" d="M103.1,259.4c0.5-0.8,1-1.5,1.5-2.3c0.2-0.3,0.4-0.6,0.6-0.9c0.1-0.2,0.2-0.5,0.2-0.7
							c-0.1,0-0.1,0.1-0.2,0.1c-0.3,0.2-0.6,0.4-1,0.5c-0.2,0.6-0.6,1.3-1.2,2C103.1,258.6,103,259,103.1,259.4
							C103.1,259.4,103.1,259.4,103.1,259.4z"/>
						<path fill="#BF7C35" d="M99.9,264c0.2-0.2,0.4-0.4,0.6-0.6c0-0.1,0-0.1,0-0.2c0.1-0.5,0.4-1.1,0.8-1.7c-0.1,0-0.2,0-0.3,0
							c-0.3,0.1-0.5,0.1-0.8,0.2c-0.3,0.6-0.5,1.1-0.7,1.7c-0.1,0.4-0.1,0.8-0.1,1.1c0,0,0.1-0.1,0.1-0.1
							C99.6,264.3,99.7,264.2,99.9,264z"/>
						<path fill="#BF7C35" d="M105.5,255.2c0.1-0.8,0.1-1.4-0.1-1.9c-0.3,0.1-0.6,0.2-0.9,0.4c-0.1,0-0.2,0.1-0.2,0.1
							c0.2,0.4,0.3,1.1,0.1,1.9c0.2-0.1,0.3-0.2,0.5-0.2C105.1,255.4,105.3,255.3,105.5,255.2z"/>
					</g>
					<path fill="#BF7C35" d="M105.7,252.1c0.2,0.8-0.6,2.1-0.6,2.1c0,0-1.2,0.1-1.4-0.7c-0.2-0.8,0.6-2.2,0.6-2.2
						C104.3,251.4,105.5,251.3,105.7,252.1z"/>
				</g>
				<g>
					<g>
						<path fill="#D2933B" d="M113.6,252.7c0.5-0.7,1-1.4,1.5-2.1"/>
						<path fill="#F0AC5F" d="M113.3,252.9c-0.1-0.2-0.1-0.4,0-0.5c0.5-0.8,1-1.5,1.5-2.2c0.1-0.2,0.4-0.1,0.6,0.1
							c0.2,0.2,0.3,0.6,0.2,0.7c-0.5,0.6-1,1.3-1.5,2c-0.1,0.2-0.4,0.2-0.6,0C113.3,253,113.3,252.9,113.3,252.9z"/>
					</g>
					<g>
						<path fill="#D2933B" d="M116.2,250.9c-0.2,0.3-0.8,0.1-1.2-0.3c-0.4-0.4-0.5-1-0.3-1.3c0.2-0.3,0.8-0.2,1.2,0.2
							C116.3,250,116.4,250.6,116.2,250.9z"/>
					</g>
					<g>
						<path fill="#D2933B" d="M114.3,253.5c0.9-0.1,1.9,0.1,2.8,0.4"/>
						<path fill="#F0AC5F" d="M113.9,253.7c0,0-0.1-0.1-0.1-0.2c-0.1-0.3,0-0.5,0.3-0.5c0.9-0.1,1.9,0,2.8,0.3
							c0.2,0.1,0.5,0.4,0.6,0.7c0.1,0.3,0,0.5-0.3,0.4c-0.9-0.3-1.9-0.5-2.8-0.4C114.2,254,114,253.9,113.9,253.7z"/>
					</g>
					<g>
						<path fill="#D2933B" d="M117.5,253.2c-0.4-0.2-0.7,0.2-0.5,0.7c0.2,0.6,0.7,1.2,1.1,1.4c0.4,0.2,0.7,0,0.5-0.6
							C118.4,254.1,117.9,253.4,117.5,253.2z"/>
					</g>
				</g>
				<g>
					<g>
						<path fill="#F0AC5F" d="M88.8,275.8c0.1,0,0.2-0.1,0.4-0.2c0,0,0,0,0,0c0.1,0,0.1-0.1,0.2-0.1c0.3-0.3,0.7-0.3,1.1-0.2
							c0.2,0,0.3,0,0.5,0c0.1,0,0.2,0,0.3,0.2c0,0.1,0,0.2,0.1,0.3c0.1-0.1,0.3-0.2,0.4-0.4c0,0,0-0.1,0-0.1c0-0.1,0-0.2,0.1-0.3
							c0.3-0.2,0.5-0.3,0.8-0.5c0.1,0,0.2-0.1,0.2-0.1c0.1-0.1,0.3-0.3,0.4-0.4c-0.1-0.1-0.3-0.1-0.4-0.2c-0.1,0-0.1-0.1,0-0.2
							c0.3-0.3,0.4-0.7,0.6-1c0.2-0.4,0.4-0.8,0.6-1.3c0,0,0-0.1,0.1-0.1c0.1,0,0.2,0,0.2-0.1c0.8-0.1,1.7-0.3,2.5-0.8
							c0.4-0.2,0.6-0.2,0.5,0.2c0,0.3-0.1,0.5-0.1,0.8c0,0.3,0,0.7,0,1c0,0.1,0,0.1,0,0.2c-0.1,0.3-0.1,0.4-0.4,0.4
							c-0.4,0.1-0.9,0.1-1.4,0.3c-0.1,0-0.2,0.1-0.2,0.2c0,0-0.1,0.1-0.1,0.1c0.1-0.1,0.3-0.2,0.4-0.3c0.1,0.1,0.1,0.2,0.2,0.3
							c0.2-0.1,0.3-0.2,0.5-0.2c0.1,0,0.2,0,0.3,0c0.2,0,0.3,0.1,0.4,0.1c0.1,0.1,0.2,0.2,0.3,0.3c0.1,0,0.1,0,0.1,0
							c0.1,0.1,0.2,0.2,0.3,0.3c0.1,0.1,0.1,0.4,0,0.6c-0.1,0.2-0.3,0.3-0.4,0.5c0.1,0,0.2,0.1,0.2,0.3c0.1,0.3,0.1,0.7,0.2,1
							c0,0.2,0.1,0.3,0.2,0.4c0,0,0.1,0.1,0.1,0.1c0.2-0.2,0.3-0.4,0.5-0.6c0,0,0,0,0-0.1c-0.2-0.6-0.4-1.2-0.6-1.9
							c0-0.1,0-0.1,0.1-0.2c0.4-0.3,0.8-0.6,1.3-0.8c0.2-0.1,0.4-0.3,0.6-0.5c0.3-0.3,0.5-0.4,0.8-0.3c0.1,0.1,0.2,0.1,0.3,0.1
							c0.1,0,0.1,0.1,0.2,0.1c0.1-0.2,0.2-0.3,0.4-0.5c-0.1,0-0.1-0.1-0.2-0.2c-0.2-0.3-0.1-0.7-0.1-1.1c0-0.3,0-0.7-0.1-1
							c0-0.3,0.1-0.5,0.4-0.6c0.5-0.3,1-0.5,1.4-0.8c0.3-0.2,0.4-0.1,0.7,0.1c0,0,0,0,0,0c0.1-0.2,0.2-0.4,0.2-0.7c0,0,0,0,0,0
							c0.1-0.2,0.2-0.4,0.3-0.7c0,0,0,0,0,0c0,0-0.1,0.1-0.1,0.1c0,0,0,0,0,0c-0.2,0.1-0.3,0.3-0.5,0.4c0,0-0.1,0-0.2,0
							c-0.2-0.2-0.5,0-0.8,0.1c-0.4,0.2-0.8,0.3-1.2,0.5c-0.2,0.1-0.4,0.2-0.6,0.4c-0.2,0.2-0.3,0.1-0.4,0c-0.1-0.1-0.2-0.2-0.3-0.3
							c0,0,0-0.1,0-0.2c0-0.1,0-0.1,0-0.2c-0.1-0.6,0.3-1.2,0.6-1.8c0.2-0.3,0.4-0.7,0.5-1c0-0.1,0.1-0.1,0.1-0.2
							c0.2-0.4,0.5-0.6,0.9-0.7c0.3,0,0.6-0.1,1-0.3c0.3-0.2,0.4-0.1,0.4,0.1c0.1,0.3,0.2,0.6,0.3,0.8c0.1,0.4,0.2,0.9,0.4,1.3
							c0,0.1,0,0.1,0,0.2c0.1-0.2,0.2-0.5,0.3-0.7c-0.1-0.4-0.2-0.8-0.4-1.2c-0.1-0.2-0.2-0.3-0.3-0.5c-0.1-0.1-0.1-0.3,0.1-0.6
							c0,0,0.1-0.1,0.1-0.1c0.6-0.5,1.2-1,1.8-1.4c0.2-0.2,0.5-0.3,0.7-0.3c0.5-0.7,1-1.4,1.5-2c-0.2-0.1-0.4-0.1-0.5-0.2
							c-0.3-0.4-0.4-0.9-0.2-1.5c0.1-0.2,0-0.4,0.1-0.6c0.1-0.6,0.1-0.7,0.7-0.8c0.3-0.1,0.7-0.2,1-0.2c0.1,0,0.3,0,0.4,0.1
							c0.2,0.2,0.5,0.4,0.7,0.7c0,0,0,0,0,0c0.2-0.2,0.3-0.4,0.5-0.6c-0.1,0-0.1,0-0.2,0.1c-0.1,0-0.2,0-0.2,0
							c-0.2-0.1-0.3-0.3-0.5-0.5c0,0,0-0.1,0-0.2c0-0.2,0-0.4,0-0.6c0.1-0.2,0.1-0.5,0.2-0.7c0.3-0.5,0.7-1,1-1.4
							c0.2-0.3,0.5-0.4,0.9-0.2c0.3,0.1,0.6,0.3,0.9,0.3c0.3,0,0.4,0.2,0.5,0.5c0.1,0.5,0.3,1.1,0.4,1.6c0.1,0,0.3,0,0.4,0.1
							c-0.1-0.3-0.1-0.6-0.2-0.8c-0.1-0.2-0.2-0.4-0.2-0.7c-0.1-0.4,0-0.5,0.3-0.5c0.6,0,1.1,0,1.7,0.1c0.4,0.1,0.7,0.3,1,0.8
							c0.1,0.2,0.2,0.4,0.2,0.6c0.1,0.4,0.1,0.7,0.2,1.1c0,0.2,0.1,0.4,0.1,0.5c0.1,0.2,0.2,0.4,0.2,0.5c0.2,0,0.3,0,0.4-0.1
							c0-0.1-0.1-0.3-0.1-0.4c-0.1-0.7-0.3-1.3-0.4-2c-0.4-0.5-0.9-0.9-1.3-1c0-0.1,0-0.1,0-0.2c0,0,0,0,0,0
							c-0.4-0.2-0.8-0.3-1.2-0.4c-0.4-0.1-0.8,0-1.2,0c-0.2,0-0.3-0.1-0.5-0.1c0,0-0.1-0.1-0.1-0.1c0,0,0,0,0,0
							c-0.3-0.5,0-0.8,0.2-1.1c0.1-0.2,0.2-0.4,0.4-0.6c0.1-0.1,0.1-0.2,0.3-0.1c0.3,0,0.6,0,0.9,0.1c0.1,0,0.2,0,0.3,0.1
							c-0.1-0.2-0.3-0.3-0.4-0.5c0,0,0,0,0,0c-0.4,0-0.8,0-1.2-0.1c-0.1,0-0.3-0.2-0.5-0.3c-0.2-0.1-0.4-0.3-0.6-0.4
							c-0.1-0.1-0.2-0.1-0.1-0.3c0.2-0.3,0.4-0.6,0.6-0.8c0.2-0.3,0.4-0.7,0.6-1c0,0,0,0,0,0c-0.1-0.2-0.1-0.4-0.2-0.5
							c-0.7,0.5-1,1.3-1.4,2.2c-0.1,0.3-0.2,0.6-0.5,0.8c-0.1,0.1-0.3,0.2-0.5,0.2c0,0.1,0.1,0.2,0.1,0.3c-0.1,0.2-0.2,0.5-0.3,0.8
							c0.1,0.3,0.1,0.5,0.2,0.8c0.1,0.3-0.1,0.5-0.3,0.7c-0.2,0.2-0.4,0.5-0.6,0.7c-0.4,0.6-0.6,1.3-0.7,2c0,0.1-0.1,0.2-0.2,0.2
							c-0.5,0.1-0.9,0.1-1.2-0.3c-0.1-0.1-0.1-0.2,0-0.4c-0.2,0.2-0.4,0.4-0.6,0.6c0,0.3-0.2,0.3-0.3,0.4c0,0-0.1,0-0.1,0
							c-0.2,0.2-0.4,0.4-0.6,0.6c0.1,0,0.1-0.1,0.2-0.1c0.3-0.2,0.5-0.2,0.5,0.2c0,0.2,0,0.4-0.1,0.6c0,0.4,0,0.9-0.1,1.3
							c0,0.1,0,0.3-0.1,0.4c0,0.1-0.1,0.2-0.2,0.2c-0.3,0.1-0.6,0.1-0.8,0.2c-0.4,0.1-0.8,0.4-1.2,0.7c-0.3,0.3-0.6,0.5-1,0.7
							c-0.1,0.1-0.3,0-0.4,0c-0.2,0-0.4,0-0.6,0c-0.2,0.3-0.5,0.5-0.8,0.7c-1.1,1-2.2,1.9-3.3,2.8c-0.2,0.2-0.3,0.4-0.5,0.6
							c-0.1,0.1-0.2,0.1-0.2,0.1c-0.2,0.1-0.3,0.3-0.5,0.4c0.2,0.2,0.3,0.5,0.3,0.9c0,0.5-0.1,0.9-0.1,1.4c0,0.3-0.1,0.6-0.1,0.8
							c0,0.1-0.1,0.2-0.2,0.3c-0.2,0.1-0.5,0.2-0.7,0.3c-0.5,0.2-1,0.3-1.4,0.5c-0.5,0.1-0.8,0.1-1.1-0.2c-0.1,0.1-0.2,0.2-0.3,0.3
							c0.1,0.1,0.1,0.2-0.1,0.4c-0.5,0.6-0.9,1.3-1.1,2c-0.1,0.4-0.3,0.8-0.5,1.1c-0.2,0.3-0.5,0.4-0.9,0.4c-0.3,0-0.3,0-0.3-0.3
							c0-0.3-0.1-0.7-0.1-1c-0.2,0-0.3,0.1-0.4,0.1c0,0.3,0.1,0.6,0.1,0.9c0,0.1,0,0.1,0,0.2c0.1,0.3,0.1,0.3-0.2,0.3
							c-0.4,0-0.7,0.1-1,0.3c-0.2,0.1-0.4,0.2-0.6,0.3c-0.1,0-0.3,0.1-0.4,0.1c0,0-0.1-0.1-0.1-0.1c0,0,0,0,0,0
							c-0.1,0.1-0.3,0.1-0.4,0.2c0.1,0.3,0.2,0.7,0.2,1c0,0.5-0.1,0.9-0.1,1.4c0.2-0.1,0.3-0.1,0.5-0.2c0-0.4,0.1-0.9,0.1-1.3
							C88.5,276.1,88.6,275.9,88.8,275.8z M111.7,253.1c-0.1-0.3-0.1-0.6-0.2-0.9c-0.2-0.5,0-0.6,0.5-0.8c0,0,0.1,0,0.2-0.1
							c0.3-0.2,0.5-0.1,0.8,0.1c0.2,0.1,0.3,0.2,0.5,0.3c0.1,0.1,0.2,0.1,0.1,0.3c-0.1,0.2-0.3,0.5-0.4,0.7
							c-0.1,0.2-0.3,0.5-0.5,0.7c-0.1,0-0.2,0-0.3,0c-0.2-0.1-0.3-0.1-0.4-0.2C111.7,253.2,111.7,253.1,111.7,253.1z M99.9,269.6
							c0.1,0.1,0.2,0.1,0.4,0.1c0.1,0.3,0.4,0.3,0.3,0.8c-0.1,0.5-0.1,0.9-0.2,1.4c0,0.1-0.1,0.2-0.2,0.2c-0.3,0.3-0.6,0.5-0.9,0.8
							c-0.2,0.2-0.3,0.2-0.5,0.2c-0.4,0-0.9,0-1.1-0.3c-0.2-0.3-0.2-0.7-0.1-1.2c0.1-0.3,0.1-0.5,0.1-0.8c0-0.4,0.1-0.6,0.5-0.8
							c0.3-0.2,0.6-0.2,0.9-0.4C99.6,269.4,99.7,269.5,99.9,269.6z M104.4,261.7c0.2-0.1,0.4-0.3,0.6-0.5c0.3-0.2,0.6-0.4,1-0.6
							c0.1-0.1,0.2-0.1,0.3-0.1c0.2,0,0.4,0.1,0.5,0.1c0.2,0.2,0.3,0.3,0.4,0.5c0,0,0,0.2-0.1,0.3c-0.1,0.2-0.1,0.3-0.3,0.5
							c-0.1,0.2-0.3,0.3-0.5,0.4c-0.2,0.1-0.5,0.2-0.7,0.4c-0.4,0.2-0.7,0.5-1.1,0.8c-0.2,0.2-0.5,0.4-0.7,0.6
							c-0.1,0.1-0.3,0.1-0.5,0.2c0,0,0,0-0.1,0c-0.1-0.1-0.2-0.6-0.1-0.7c0.2-0.4,0.4-0.9,0.6-1.3C104,262,104.2,261.8,104.4,261.7z
							 M102.4,262.5c0.2-0.1,0.4-0.2,0.7-0.2c0.1,0,0.2,0,0.3,0c0.1,0,0.2,0.1,0.1,0.3c-0.1,0.3-0.2,0.6-0.3,0.9
							c-0.1,0.3-0.3,0.7-0.5,1c-0.1,0.1-0.2,0.1-0.3,0.2c-0.2,0-0.3,0.1-0.4,0.1c-0.1,0-0.1,0-0.1-0.1c-0.1-0.3-0.2-0.7-0.3-1
							c0-0.1,0-0.3,0.1-0.4C101.9,263,102.1,262.7,102.4,262.5z M98.2,268.7c0-0.6,0.1-1.2,0.1-1.8c0-0.4,0.2-0.8,0.5-1.2
							c0.1-0.1,0.1-0.2,0.2-0.2c0.1-0.1,0.2-0.3,0.3-0.4c0.2-0.4,0.5-0.6,0.9-0.7c0.2-0.1,0.4-0.3,0.6-0.4c0.1-0.1,0.2-0.1,0.2,0
							c0.1,0.3,0.2,0.6,0.2,0.9c0.1,0.3-0.1,0.6-0.3,0.8c-0.3,0.5-0.7,1-0.8,1.5c-0.2,0.5-0.4,1.1-0.5,1.6c-0.1,0.4-0.1,0.4-0.4,0.6
							c-0.3,0.1-0.6,0.1-0.9,0C98.2,269.2,98.2,269,98.2,268.7z"/>
					</g>
					<g>
						<path fill="#F0AC5F" d="M95.1,279.6C95.1,279.7,95.1,279.7,95.1,279.6c-0.2-0.3-0.3-0.6-0.4-0.9c0-0.1,0-0.2-0.1-0.3
							c-0.1,0.1-0.2,0.3-0.4,0.4c0.1,0.3,0.2,0.6,0.3,0.9c0.1,0.2,0,0.4-0.2,0.6c0,0-0.1,0.1-0.1,0.1c0,0,0,0,0,0
							c-0.1,0.1-0.1,0.1-0.2,0.2c-0.1,0.2-0.3,0.2-0.5,0.1c-0.2-0.2-0.4-0.2-0.7-0.1c-0.1,0-0.2,0-0.3,0c-0.2,0.2-0.5,0.4-0.7,0.7
							c0.4,0,0.8-0.1,1.2-0.1c0.5-0.1,0.8,0.1,0.9,0.5c0.4-0.4,0.8-0.8,1.1-1.2c0.4-0.1,0.8-0.3,1.1-0.7c0,0,0,0,0.1-0.1
							c-0.1,0-0.3,0.1-0.4,0.1C95.5,279.9,95.3,279.8,95.1,279.6z"/>
					</g>
					<g>
						<path fill="#F0AC5F" d="M91,284.1c0,0,0.1,0.1,0.1,0.1c0.1-0.1,0.3-0.2,0.4-0.3c-0.1-0.3-0.2-0.5-0.2-0.8c0-0.4,0-0.9,0-1.3
							c0,0,0-0.1,0-0.1c-0.2,0.1-0.3,0.3-0.5,0.4c0,0.3-0.1,0.6-0.1,0.9c0,0.1-0.1,0.1-0.1,0.2c-0.3,0.1-0.6,0.2-1,0.2
							c-0.1,0-0.3,0-0.4-0.1c0,0,0,0,0,0c0,0-0.1,0-0.1,0c-0.2,0.1-0.2,0.3-0.1,0.6c0.4,0.1,0.8,0.1,1.2,0
							C90.4,283.6,90.7,283.8,91,284.1z"/>
					</g>
					<g>
						<path fill="#F0AC5F" d="M84.9,276.6C84.9,276.6,84.9,276.6,84.9,276.6c0.2,0.4,0.3,0.7,0.5,1.1c0.2,0.2,0.5,0.4,0.7,0.5
							c0.1,0.1,0.2,0.1,0.3,0.2c0.2,0,0.4-0.1,0.5-0.1c-0.5-0.3-1-0.7-1.5-1.1C85.2,276.9,85.1,276.8,84.9,276.6z"/>
					</g>
					<g>
						<path fill="#F0AC5F" d="M94.3,278.8c0.1-0.1,0.2-0.3,0.4-0.4c0-0.2-0.1-0.4-0.1-0.5c-0.1,0-0.1,0.1-0.2,0.2
							c-0.1,0.1-0.1,0.2-0.2,0.3c0,0,0,0,0,0C94.2,278.5,94.2,278.7,94.3,278.8z"/>
					</g>
					<g>
						<path fill="#F0AC5F" d="M92.4,280.6c-0.2,0.2-0.5,0.5-0.7,0.7c0,0,0,0,0.1,0C92,281.1,92.2,280.8,92.4,280.6
							C92.5,280.6,92.5,280.6,92.4,280.6z"/>
					</g>
					<g>
						<path fill="#F0AC5F" d="M97.4,274c0,0.1-0.4,0.8-0.5,0.9c-0.3,0.2-0.6,0.3-0.9,0.5c-0.1,0.2-0.2,0.4-0.3,0.5
							c0.2-0.1,0.3-0.2,0.5-0.4c0.3-0.2,0.6-0.4,0.8-0.4c0.1,0,0.1,0,0.2,0c0.1-0.2,0.3-0.3,0.4-0.5c0.2-0.2,0.2-0.5,0-0.6
							c-0.1-0.1-0.2-0.2-0.3-0.3c0,0-0.1,0-0.1,0C97.3,273.9,97.4,273.9,97.4,274C97.4,274,97.4,274,97.4,274z"/>
					</g>
					<g>
						<path fill="#F0AC5F" d="M91.3,275.8c0,0.1,0,0.2,0.1,0.3c0.2,0,0.3-0.1,0.5-0.1c0-0.2-0.1-0.3-0.1-0.5
							C91.6,275.6,91.4,275.7,91.3,275.8z"/>
					</g>
					<g>
						<path fill="#F0AC5F" d="M93.4,274.7c0.6-0.3,1.2-0.7,1.7-1c0,0,0.1-0.1,0.1-0.1c-0.1,0.1-0.2,0.2-0.3,0.2
							c-0.4,0.2-0.7,0.4-1.1,0.5c-0.1,0-0.2-0.1-0.3-0.1c-0.1,0-0.2-0.1-0.3-0.1c-0.1,0.1-0.3,0.3-0.4,0.4c0.1,0,0.3,0.1,0.4,0.1
							C93.3,274.6,93.3,274.7,93.4,274.7z"/>
					</g>
					<g>
						<path fill="#BF7C35" d="M113.1,249.6c-0.2,0.3-0.4,0.6-0.6,0.8c-0.1,0.1,0,0.2,0.1,0.3c0.2,0.1,0.4,0.3,0.6,0.4
							c0.2,0.1,0.3,0.3,0.5,0.3c0.4,0,0.9,0.1,1.2,0.1c0,0,0,0,0,0c-0.3-0.4-0.7-0.7-1.1-0.8c0.2-0.6,0-1.5-0.2-2.1c0,0,0,0,0,0
							C113.5,248.9,113.3,249.2,113.1,249.6z"/>
					</g>
					<g>
						<path fill="#BF7C35" d="M89.5,284.7c0.2,0.2,0.5,0.3,0.7,0.2c0.3-0.2,0.6-0.4,0.9-0.7c0,0-0.1-0.1-0.1-0.1
							c-0.3-0.3-0.6-0.5-0.9-0.4c-0.4,0.1-0.8,0.1-1.2,0c0,0,0,0.1,0.1,0.1C89.1,284.1,89.3,284.4,89.5,284.7z"/>
					</g>
					<g>
						<path fill="#BF7C35" d="M118.2,257.8c0.5-0.1,0.7-0.6,0.7-0.6c0,0-0.5-1-1.3-1.8c0.1,0.7,0.3,1.3,0.4,2
							C118.1,257.5,118.2,257.7,118.2,257.8z"/>
					</g>
					<g>
						<path fill="#BF7C35" d="M85.4,277.6c0,0.1,0.1,0.1,0.1,0.2c0.2,0.3,0.5,0.6,0.7,0.6c0.1,0,0.1,0,0.2,0c-0.1,0-0.2-0.1-0.3-0.2
							C85.9,278,85.7,277.8,85.4,277.6z"/>
					</g>
					<g>
						<path fill="#BF7C35" d="M107.5,256.6c-0.1,0.1-0.3,0.3-0.4,0.4c0,0,0.1,0,0.1,0C107.4,256.9,107.5,256.8,107.5,256.6z"/>
					</g>
					<g>
						<path fill="#BF7C35" d="M95.3,270.5c0.5-0.1,1-0.3,1.4-0.5c0.2-0.1,0.5-0.2,0.7-0.3c0.1,0,0.2-0.2,0.2-0.3
							c0.1-0.3,0.1-0.6,0.1-0.8c0.1-0.5,0.1-1,0.1-1.4c0-0.4-0.1-0.7-0.3-0.9c-0.2,0.2-0.4,0.4-0.7,0.7c0,0,0,0,0,0
							c-0.9,1.2-1.9,2.2-2.8,3.2C94.4,270.6,94.8,270.6,95.3,270.5z"/>
					</g>
					<g>
						<path fill="#BF7C35" d="M88.1,276.5c0-0.3-0.1-0.7-0.2-1c-1,0.4-1.9,0.5-2.9,0.5c-0.2,0-0.2,0.3-0.1,0.6
							c0.2,0.2,0.3,0.4,0.5,0.5c0.5,0.4,1,0.8,1.5,1.1c0.3-0.1,0.7-0.2,1-0.3C88,277.4,88,277,88.1,276.5z"/>
					</g>
					<g>
						<path fill="#BF7C35" d="M98.3,265.8c0.2-0.2,0.3-0.4,0.5-0.6c-0.1,0.1-0.2,0.2-0.4,0.3c0,0,0,0,0,0c-0.1,0.1-0.3,0.2-0.4,0.3
							C98.2,266,98.2,266,98.3,265.8z"/>
					</g>
					<g>
						<path fill="#BF7C35" d="M89.8,274.5c-0.5,0.3-1,0.6-1.5,0.8c0,0,0,0,0,0c0,0,0.1,0.1,0.1,0.1c0.1,0,0.3,0,0.4-0.1
							c0.2-0.1,0.4-0.2,0.6-0.3c0.3-0.2,0.6-0.3,1-0.3c0.3,0,0.3,0,0.2-0.3c0-0.1,0-0.1,0-0.2c0-0.3-0.1-0.6-0.1-0.9"/>
					</g>
					<g>
						<path fill="#BF7C35" d="M113.1,254c-0.3,0-0.6-0.2-0.9-0.3c-0.4-0.2-0.7-0.1-0.9,0.2c-0.3,0.5-0.7,0.9-1,1.4
							c-0.1,0.2-0.2,0.5-0.2,0.7c0,0.2,0,0.4,0,0.6c0,0.1,0,0.1,0,0.2c0.1,0.2,0.3,0.3,0.5,0.5c0,0,0.2,0,0.2,0c0.1,0,0.1,0,0.2-0.1
							c0,0,0.1-0.1,0.1-0.1c0.5-0.4,1-0.8,1.4-1.2c0.5,0.1,1,0.1,1.5,0.2c-0.1-0.5-0.3-1.1-0.4-1.6
							C113.5,254.3,113.4,254.1,113.1,254z"/>
					</g>
					<g>
						<path fill="#BF7C35" d="M104.4,267.2c-0.1,0.2-0.1,0.3-0.2,0.5C104.3,267.5,104.4,267.4,104.4,267.2z"/>
					</g>
					<g>
						<path fill="#BF7C35" d="M104,265.7c-0.1-0.3-0.2-0.5-0.3-0.8c-0.1-0.2-0.1-0.3-0.4-0.1c-0.3,0.2-0.7,0.2-1,0.3
							c-0.4,0.1-0.7,0.2-0.9,0.7c0,0.1-0.1,0.1-0.1,0.2c-0.2,0.3-0.4,0.7-0.5,1c-0.3,0.6-0.7,1.3-0.6,1.8c0,0.1,0,0.1,0,0.2
							c0,0.1,0,0.2,0,0.2c0.1,0.1,0.2,0.3,0.3,0.3c0.1,0,0.2,0.1,0.4,0c0.2-0.2,0.4-0.3,0.6-0.4c0.4-0.2,0.8-0.3,1.2-0.5
							c0.3-0.1,0.6-0.3,0.8-0.1c0,0,0.1,0,0.2,0c0.2-0.1,0.3-0.3,0.5-0.4c0,0,0,0,0,0c0,0,0.1-0.1,0.1-0.1c0,0,0,0,0,0
							c0.1-0.2,0.1-0.3,0.2-0.5c0-0.1,0-0.1,0-0.2C104.2,266.6,104.1,266.1,104,265.7z"/>
					</g>
					<g>
						<path fill="#BF7C35" d="M92.8,280.6c0.3,0,0.5,0,0.7,0.1c0.1,0.1,0.3,0.1,0.5-0.1c0.1-0.1,0.1-0.1,0.2-0.2c0,0,0,0,0,0
							c0,0,0.1-0.1,0.1-0.1c0.2-0.2,0.3-0.4,0.2-0.6c-0.1-0.3-0.2-0.6-0.3-0.9c-0.6,0.6-1.2,1.2-1.8,1.8
							C92.6,280.6,92.7,280.6,92.8,280.6z"/>
					</g>
					<g>
						<path fill="#BF7C35" d="M94.3,278.8c0-0.2-0.1-0.3-0.1-0.5c0,0,0,0,0,0c-0.2,0.3-0.3,0.6-0.3,0.9c-0.5,0.5-0.9,0.9-1.4,1.4
							c0,0,0,0,0,0C93.1,280.1,93.7,279.5,94.3,278.8z"/>
					</g>
					<g>
						<path fill="#BF7C35" d="M91.3,274.6c0.4,0,0.7-0.1,0.9-0.4c0.2-0.4,0.4-0.8,0.5-1.1c0.3-0.7,0.6-1.4,1.1-2
							c0.1-0.2,0.1-0.3,0.1-0.4c-0.9,1-1.9,1.9-2.8,2.6c-0.1,0-0.1,0-0.2,0c0,0.3,0.1,0.7,0.1,1C91,274.6,91,274.6,91.3,274.6z"/>
					</g>
					<g>
						<path fill="#BF7C35" d="M112.2,250.2c0.3-0.8,0.7-1.6,1.4-2.2c0,0,0-0.1,0-0.1c0,0-1.8,0-2.3,1.2c-0.3,0.7-0.2,1.4,0,2
							c0.2,0,0.3-0.1,0.5-0.2C111.9,250.8,112,250.5,112.2,250.2z"/>
					</g>
					<g>
						<path fill="#BF7C35" d="M117.4,256.8c-0.1-0.4-0.1-0.7-0.2-1.1c0-0.2-0.1-0.4-0.2-0.6c-0.3-0.5-0.7-0.7-1-0.8
							c-0.6-0.1-1.1-0.1-1.7-0.1c-0.4,0-0.5,0.1-0.3,0.5c0.1,0.2,0.2,0.4,0.2,0.7c0.1,0.3,0.1,0.6,0.2,0.8c0.3,0,0.6,0.1,0.8,0
							c0.5,0.5,1.2,1.1,1.9,1.4c0.2,0.1,0.5,0.2,0.6,0.2c0-0.2-0.1-0.3-0.2-0.5C117.5,257.1,117.5,256.9,117.4,256.8z"/>
					</g>
					<g>
						<path fill="#BF7C35" d="M106.2,262.6c-0.6,0.4-1.2,0.9-1.8,1.4c-0.1,0-0.1,0.1-0.1,0.1c-0.2,0.3-0.2,0.4-0.1,0.6
							c0.1,0.2,0.2,0.3,0.3,0.5c0.1,0.4,0.2,0.8,0.4,1.2c0.4-0.8,0.7-1.6,1.1-2.4c0.2-0.5,0.5-1,0.9-1.5c0.1-0.1,0.1-0.2,0.2-0.3
							C106.7,262.4,106.4,262.5,106.2,262.6z"/>
					</g>
					<g>
						<path fill="#BF7C35" d="M97.7,276.5c-0.1-0.3-0.1-0.7-0.2-1c0-0.2-0.1-0.2-0.2-0.3c-0.9,1.1-1.8,2.2-2.7,3.2
							c0,0.1,0,0.2,0.1,0.3c0.1,0.3,0.3,0.7,0.4,1c0,0,0,0,0.1,0c0.2,0.2,0.3,0.2,0.6,0.1c0.1,0,0.3-0.1,0.4-0.1
							c0.2-0.3,0.3-0.6,0.4-0.8c0.5-0.6,0.9-1.1,1.4-1.7c0,0-0.1-0.1-0.1-0.1C97.8,276.8,97.7,276.7,97.7,276.5z"/>
					</g>
					<g>
						<path fill="#BF7C35" d="M96.3,275.6c-0.2,0.1-0.3,0.2-0.5,0.4c-0.3,0.5-0.5,1.1-0.8,1.6c-0.2,0.1-0.3,0.2-0.5,0.3
							c0.1,0.2,0.1,0.3,0.1,0.5c0.9-1,1.8-2.1,2.7-3.2c0,0-0.1,0-0.2,0C96.9,275.2,96.6,275.4,96.3,275.6z"/>
					</g>
					<g>
						<path fill="#BF7C35" d="M95.4,272.2c0.1,0.1,0.2,0.2,0.3,0.3c0.1,0.1,0.1,0.4,0,0.6c-0.1,0.2-0.3,0.3-0.4,0.5
							c0.1-0.1,0.2-0.1,0.2-0.2c0.5-0.2,0.9-0.3,1.4-0.3c0.3,0,0.3-0.1,0.4-0.4c0-0.1,0-0.1,0-0.2c0-0.3,0-0.7,0-1
							c0-0.3,0.1-0.5,0.1-0.8c0-0.4-0.2-0.4-0.5-0.2c-0.8,0.5-1.7,0.7-2.5,0.8c-0.1,0-0.2,0-0.2,0.1c-0.1,0.1-0.1,0.1-0.1,0.1
							c-0.2,0.4-0.4,0.8-0.6,1.3c-0.2,0.3-0.3,0.7-0.6,1c-0.1,0.1-0.1,0.2,0,0.2c0.1,0.1,0.3,0.1,0.4,0.2c0.5-0.5,1.1-1.1,1.6-1.7
							C95,272.1,95.2,272.1,95.4,272.2z"/>
					</g>
					<g>
						<path fill="#BF7C35" d="M93.8,274.3c0.4-0.1,0.8-0.3,1.1-0.5c0.1-0.1,0.2-0.2,0.3-0.2c0.1-0.2,0.3-0.3,0.4-0.5
							c0.2-0.2,0.2-0.4,0-0.6c-0.1-0.1-0.2-0.2-0.3-0.3c-0.1-0.1-0.4-0.1-0.5,0.1c-0.5,0.6-1.1,1.2-1.6,1.7c0.1,0,0.2,0.1,0.3,0.1
							C93.6,274.2,93.7,274.3,93.8,274.3z"/>
					</g>
					<g>
						<path fill="#BF7C35" d="M103.8,261.7c0.3-0.2,0.7-0.4,1-0.7c0.4-0.3,0.8-0.6,1.2-0.7c0.3-0.1,0.5-0.1,0.8-0.2
							c0.1,0,0.2-0.1,0.2-0.2c0.1-0.1,0.1-0.3,0.1-0.4c0-0.4,0-0.9,0.1-1.3c0-0.2,0-0.4,0.1-0.6c0-0.4-0.2-0.4-0.5-0.2
							c-0.1,0-0.1,0.1-0.2,0.1c-1,1.1-2.1,2.3-3.1,3.5c-0.2,0.2-0.4,0.4-0.5,0.6c0.2,0,0.4,0,0.6,0
							C103.5,261.7,103.7,261.8,103.8,261.7z"/>
					</g>
					<g>
						<path fill="#BF7C35" d="M100.9,272.9c-0.1,0-0.2-0.1-0.3-0.1c-0.2-0.1-0.5,0-0.8,0.3c-0.2,0.2-0.4,0.3-0.6,0.5
							c-0.4,0.3-0.8,0.6-1.3,0.8c-0.1,0.1-0.1,0.1-0.1,0.2c0.2,0.6,0.4,1.2,0.6,1.9c0,0,0,0,0,0.1c0.9-1.1,1.7-2.3,2.6-3.5
							C101,272.9,101,272.9,100.9,272.9z"/>
					</g>
					<g>
						<path fill="#BF7C35" d="M88.7,277.5c0.8-0.4,1.7-1,2.5-1.7c0-0.1,0-0.2-0.1-0.3c0-0.2-0.1-0.2-0.3-0.2c-0.2,0-0.3,0.1-0.5,0
							c-0.4-0.1-0.8-0.1-1.1,0.2c0,0-0.1,0.1-0.2,0.1c0,0,0,0,0,0c-0.1,0.1-0.2,0.2-0.4,0.2c-0.2,0.1-0.3,0.3-0.4,0.5
							c0,0.4-0.1,0.9-0.1,1.3C88.5,277.6,88.6,277.6,88.7,277.5C88.7,277.5,88.7,277.5,88.7,277.5z"/>
					</g>
					<g>
						<path fill="#BF7C35" d="M88.7,277.5C88.7,277.5,88.7,277.5,88.7,277.5c0.7-0.3,1.5-0.8,2.2-1.4c0.1,0,0.3,0,0.4,0
							c0-0.1,0-0.2-0.1-0.3C90.4,276.5,89.6,277,88.7,277.5z"/>
					</g>
					<g>
						<path fill="#BF7C35" d="M98.4,269.3c0.2,0.1,0.5,0.1,0.9,0c0.4-0.1,0.3-0.1,0.4-0.6c0.1-0.5,0.3-1,0.5-1.6
							c0.2-0.5,0.5-1,0.8-1.5c0.2-0.3,0.3-0.6,0.3-0.8c-0.1-0.3-0.1-0.6-0.2-0.9c0-0.1-0.1,0-0.2,0c-0.2,0.1-0.4,0.3-0.6,0.4
							c-0.3,0.2-0.6,0.4-0.9,0.7c-0.1,0.1-0.2,0.3-0.3,0.4c-0.1,0.1-0.1,0.2-0.2,0.2c-0.3,0.4-0.5,0.7-0.5,1.2
							c0,0.6-0.1,1.2-0.1,1.8C98.2,269,98.2,269.2,98.4,269.3z"/>
					</g>
					<g>
						<path fill="#BF7C35" d="M109.3,256.7c0.1,0,0.2-0.1,0.2-0.2c0.1-0.7,0.3-1.4,0.7-2c0.2-0.3,0.4-0.5,0.6-0.7
							c0.2-0.2,0.3-0.4,0.3-0.7c-0.1-0.3-0.1-0.5-0.2-0.8c-0.1,0.4-0.2,0.9-0.3,1.3c-0.5,0.4-0.9,0.9-1.4,1.4
							c-0.4,0.3-0.8,0.7-1.2,1.1c0,0.1,0,0.3,0,0.4C108.4,256.7,108.8,256.8,109.3,256.7z"/>
					</g>
					<g>
						<path fill="#BF7C35" d="M89.5,283.3c0.3,0,0.7-0.1,1-0.2c0.1,0,0.1-0.1,0.1-0.2c0-0.3,0.1-0.6,0.1-0.9
							c-0.6,0.4-1.1,0.8-1.7,1.1c0,0,0,0,0,0C89.2,283.3,89.4,283.3,89.5,283.3z"/>
					</g>
					<g>
						<path fill="#BF7C35" d="M97.8,270.8c0,0.3,0,0.5-0.1,0.8c-0.1,0.5-0.1,0.9,0.1,1.2c0.2,0.4,0.7,0.3,1.1,0.3
							c0.2,0,0.3-0.1,0.5-0.2c0.3-0.3,0.6-0.5,0.9-0.8c0.1-0.1,0.1-0.2,0.2-0.2c0.1-0.5,0.1-0.9,0.2-1.4c0.1-0.4-0.2-0.5-0.3-0.8
							c-0.1,0-0.3-0.1-0.4-0.1c-0.2-0.1-0.3-0.1-0.6,0c-0.3,0.2-0.6,0.3-0.9,0.4C98,270.2,97.9,270.3,97.8,270.8z"/>
					</g>
					<g>
						<path fill="#BF7C35" d="M109.7,257.1c-0.1-0.1-0.2-0.1-0.4-0.1c-0.3,0-0.6,0.1-1,0.2c-0.6,0.2-0.6,0.2-0.7,0.8
							c0,0.2,0,0.4-0.1,0.6c-0.2,0.6,0,1,0.2,1.5c0.2,0,0.3,0.1,0.5,0.2c0.7-0.9,1.3-1.7,2-2.5c0,0,0,0,0,0
							C110.2,257.6,109.9,257.4,109.7,257.1z"/>
					</g>
					<g>
						<path fill="#BF7C35" d="M102.9,268.9c-0.5,0.2-1,0.5-1.4,0.8c-0.3,0.2-0.4,0.3-0.4,0.6c0,0.3,0.1,0.7,0.1,1
							c0,0.4-0.1,0.8,0.1,1.1c0,0.1,0.1,0.1,0.2,0.2c0.2-0.2,0.3-0.4,0.5-0.7c0.1-0.2,0.3-0.3,0.4-0.5c0.6-0.8,1-1.6,1.3-2.3
							c0,0,0,0,0,0C103.3,268.7,103.2,268.7,102.9,268.9z"/>
					</g>
					<g>
						<path fill="#BF7C35" d="M91.3,283.1c0,0.3,0,0.6,0.2,0.8c0.8-0.7,1.6-1.4,2.4-2.3c-0.2-0.4-0.4-0.5-0.9-0.5
							c-0.4,0.1-0.8,0.1-1.2,0.1c0,0-0.1,0.1-0.1,0.1c0,0-0.1,0.1-0.1,0.1c-0.1,0.1-0.2,0.1-0.2,0.2c0,0,0,0.1,0,0.1
							C91.3,282.2,91.3,282.6,91.3,283.1z"/>
					</g>
					<g>
						<path fill="#BF7C35" d="M91.5,281.4c0.1,0,0.1,0,0.1-0.1c0,0,0.1-0.1,0.1-0.1c0,0,0,0-0.1,0C91.6,281.3,91.6,281.4,91.5,281.4
							z"/>
					</g>
					<g>
						<path fill="#BF7C35" d="M114.2,251.8c-0.2,0-0.2,0-0.3,0.1c-0.1,0.2-0.2,0.4-0.4,0.6c-0.2,0.3-0.5,0.6-0.2,1.1c0,0,0,0,0,0
							c0,0,0.1,0.1,0.1,0.1c0.2,0,0.4,0.1,0.5,0.1c0.4,0,0.8-0.1,1.2,0c0.4,0.1,0.8,0.2,1.2,0.4c0,0,0,0,0,0
							c-0.1-0.6-0.3-1.2-0.7-1.8c-0.1-0.2-0.2-0.3-0.3-0.4c-0.1,0-0.2,0-0.3-0.1C114.8,251.8,114.5,251.8,114.2,251.8z"/>
					</g>
					<g>
						<path fill="#BF7C35" d="M103.4,263.5c-0.1,0.2,0,0.7,0.1,0.7c0,0,0,0,0.1,0c0.2-0.1,0.3-0.1,0.5-0.2c0.3-0.2,0.5-0.4,0.7-0.6
							c0.4-0.3,0.7-0.6,1.1-0.8c0.2-0.1,0.5-0.3,0.7-0.4c0.2-0.1,0.3-0.2,0.5-0.4c0.1-0.1,0.2-0.3,0.3-0.5c0-0.1,0.1-0.2,0.1-0.3
							c-0.1-0.2-0.3-0.3-0.4-0.5c-0.1,0-0.3-0.1-0.5-0.1c-0.1,0-0.2,0-0.3,0.1c-0.3,0.2-0.7,0.4-1,0.6c-0.2,0.2-0.4,0.4-0.6,0.5
							c-0.2,0.1-0.3,0.3-0.4,0.6C103.8,262.6,103.6,263.1,103.4,263.5z"/>
					</g>
					<g>
						<path fill="#BF7C35" d="M96.6,274.3c-0.1,0.1-0.1,0.3-0.2,0.4c0.2-0.2,0.3-0.4,0.5-0.6c0.1-0.1,0.3-0.2,0.4-0.2
							c-0.1-0.1-0.2-0.2-0.3-0.3c-0.1,0-0.3-0.1-0.4-0.1c-0.1,0-0.2,0-0.3,0c-0.2,0.1-0.3,0.2-0.5,0.2c0.1,0.1,0.2,0.2,0.3,0.3
							C96.2,274.1,96.4,274.2,96.6,274.3z"/>
					</g>
					<g>
						<path fill="#BF7C35" d="M96.9,274.1c-0.2,0.2-0.3,0.4-0.5,0.6c-0.1,0.3-0.2,0.5-0.4,0.8c0.3-0.2,0.6-0.3,0.9-0.5
							c0.1-0.1,0.5-0.8,0.5-0.9c0,0,0,0,0,0c0,0-0.1-0.1-0.1-0.1C97.2,273.8,97,273.9,96.9,274.1z"/>
					</g>
					<g>
						<path fill="#BF7C35" d="M112.5,253.4c0.2-0.3,0.3-0.5,0.5-0.7c0.1-0.2,0.2-0.5,0.4-0.7c0.1-0.1,0-0.2-0.1-0.3
							c-0.2-0.1-0.3-0.2-0.5-0.3c-0.3-0.2-0.5-0.3-0.8-0.1c0,0-0.1,0-0.2,0.1c-0.4,0.2-0.6,0.3-0.5,0.8c0.1,0.3,0.2,0.6,0.2,0.9
							c0,0.1,0.1,0.1,0.1,0.1c0.1,0.1,0.3,0.1,0.4,0.2C112.3,253.4,112.4,253.4,112.5,253.4z"/>
					</g>
					<g>
						<path fill="#BF7C35" d="M101.5,263.6c0.1,0.4,0.2,0.7,0.3,1c0,0,0.1,0.1,0.1,0.1c0.1,0,0.3,0,0.4-0.1c0.1,0,0.2-0.1,0.3-0.2
							c0.2-0.4,0.3-0.7,0.5-1c0.1-0.3,0.2-0.6,0.3-0.9c0.1-0.2,0.1-0.3-0.1-0.3c-0.1,0-0.2-0.1-0.3,0c-0.2,0-0.5,0.1-0.7,0.2
							c-0.3,0.2-0.5,0.5-0.7,0.8C101.6,263.3,101.5,263.5,101.5,263.6z"/>
					</g>
					<g>
						<path fill="#BF7C35" d="M92.5,274.5c-0.3,0.1-0.5,0.3-0.8,0.5c0,0.1-0.1,0.2-0.1,0.3c0,0,0,0.1,0,0.1c0.4-0.3,0.7-0.6,1.1-1
							C92.7,274.5,92.6,274.5,92.5,274.5z"/>
					</g>
					<g>
						<path fill="#BF7C35" d="M92.5,275.1c0.3-0.1,0.6-0.3,0.9-0.4c-0.1,0-0.1-0.1-0.2-0.1c-0.1,0-0.3-0.1-0.4-0.1
							c-0.4,0.3-0.7,0.7-1.1,1c0,0.2,0.1,0.3,0.1,0.5c0.1-0.1,0.2-0.1,0.3-0.2C92.3,275.6,92.4,275.4,92.5,275.1z"/>
					</g>
				</g>
				<g>
					<g>
						<path fill="#D2933B" d="M113.4,250.2c-0.3,0.6-1.4,0.7-1.4,0.7c0,0-0.5-0.9-0.2-1.6c0.3-0.7,1.4-0.7,1.4-0.7
							C113.2,248.5,113.7,249.6,113.4,250.2z"/>
					</g>
					<g>
						<path fill="#D2933B" d="M116.9,255.3c-0.7-0.3-1.1,0.6-1.1,0.6c0,0,0.8,1.1,1.5,1.4c0.7,0.4,1.1-0.3,1.1-0.3
							C118.4,257,117.6,255.5,116.9,255.3z"/>
					</g>
				</g>
				<g>
					<g>
						<path fill="#333333" d="M112.8,252.6c-0.3,0.2-0.6,0.1-0.9-0.1c-0.2-0.3-0.2-0.6,0.1-0.8c0.3-0.2,0.6-0.1,0.9,0.2
							C113.1,252.1,113.1,252.5,112.8,252.6z"/>
					</g>
					<g>
						<path fill="#333333" d="M114.9,255.7c-0.3,0.1-0.6-0.1-0.8-0.4c-0.2-0.3-0.2-0.7,0.1-0.8c0.3-0.1,0.6,0,0.8,0.4
							C115.2,255.2,115.2,255.6,114.9,255.7z"/>
					</g>
				</g>
				<g>
					<path fill="#D2933B" d="M112.3,256.3c-0.7,0.5-1.7,0.5-2.3-0.1c-0.6-0.6-0.5-1.7,0.2-2.3c0.7-0.7,1.7-0.6,2.3,0.2
						C113.1,254.8,113,255.8,112.3,256.3z"/>
				</g>
				<g>
					<path fill="#DEDDDD" d="M112.8,252.3c-0.1,0-0.2,0-0.2,0c-0.1-0.1,0-0.2,0-0.2c0.1,0,0.2,0,0.2,0
						C112.9,252.2,112.8,252.3,112.8,252.3z"/>
				</g>
				<g>
					
						<ellipse transform="matrix(0.6091 0.7931 -0.7931 0.6091 244.2787 9.386)" fill="#DEDDDD" cx="112.6" cy="252.5" rx="0.1" ry="0.1"/>
				</g>
				<g>
					<path fill="#DEDDDD" d="M114.9,255.4c-0.1,0-0.2,0-0.2-0.1c-0.1-0.1,0-0.2,0-0.2c0.1,0,0.2,0,0.2,0.1
						C115,255.2,115,255.3,114.9,255.4z"/>
				</g>
				<g>
					<path fill="#DEDDDD" d="M114.8,255.6c0,0-0.1,0-0.1-0.1c0,0,0-0.1,0-0.1c0,0,0.1,0,0.1,0.1
						C114.9,255.5,114.9,255.6,114.8,255.6z"/>
				</g>
				<g>
					<path fill="#333333" d="M112.1,255.3c-0.1,0.1-0.3,0.1-0.4,0c-0.1-0.1,0-0.3,0.1-0.4c0.1-0.1,0.3-0.1,0.4,0
						C112.2,255.1,112.2,255.2,112.1,255.3z"/>
				</g>
				<g>
					
						<ellipse transform="matrix(0.6523 0.758 -0.758 0.6523 231.5236 4.1097)" fill="#333333" cx="111.3" cy="254.4" rx="0.2" ry="0.3"/>
				</g>
				<g>
					<path fill="#B77033" d="M110.2,256c0,0-0.1-0.1-0.1-0.1c-0.3-0.5-0.3-1.1-0.3-1.4c0,0,0,0,0,0c0,0,0,0,0,0
						c-0.1,0.3-0.1,0.9,0.2,1.3c0.3,0.4,0.8,0.6,1.5,0.7c0,0,0,0,0,0c0,0,0,0,0,0C111,256.5,110.5,256.3,110.2,256z"/>
				</g>
				<g>
					<path fill="#CCCCCC" d="M86,279c0.1,0.3,0.4,0.4,0.5,0.3c0.5-0.3,0.4-1.2-0.1-2.2c-0.5-0.9-1.4-1.8-2.1-2.1
						c-0.2-0.1-0.3,0.1-0.1,0.4C84.8,276.7,85.4,277.9,86,279z"/>
				</g>
				<g>
					<path fill="#CCCCCC" d="M90.2,285.8c0.1,0.1,0.2,0.1,0.3,0c0.6-0.6,0.6-1.5,0-2.2c-0.6-0.7-1.5-1-2.2-0.9
						c-0.1,0-0.1,0.2-0.1,0.3C88.9,284,89.6,284.9,90.2,285.8z"/>
				</g>
			</g>
		</g>
		<g>
			<path fill="#ED92AB" d="M270.1,219.7h-2.1c-1.2,0-2.1-1-2.1-2.1v-10.2c0-1.2,1-2.1,2.1-2.1h2.1c1.2,0,2.1,1,2.1,2.1v10.2
				C272.3,218.7,271.3,219.7,270.1,219.7z"/>
			<circle fill="#ED92AB" cx="269" cy="196.6" r="14.7"/>
			<circle fill="none" stroke="#ED92AB" stroke-width="5" stroke-miterlimit="10" cx="269.2" cy="229.8" r="11.2"/>
			<path fill="#ECABC1" d="M283.5,196.4c0.1,0,0.1,0,0.2,0c0-0.3,0-0.7-0.1-1c-9.3-2.8-19.9-2.8-29.2,0.1c0,0,0,0-0.1,0
				c0,0.3,0,0.6,0,0.9c0.1,0,0.2,0.1,0.2,0.1c0,0,0.1,0,0.1,0C263.8,193.6,274.3,193.6,283.5,196.4z"/>
			<path fill="#ECABC1" d="M254.6,199.4c0.1,0.3,0.1,0.6,0.2,0.9c8.8-2.7,19.6-2.7,28.4,0c0.1-0.3,0.2-0.6,0.2-0.9
				C274.5,196.7,263.5,196.8,254.6,199.4z"/>
			<path fill="#F7C797" d="M269.8,188.8l1.7,3.4c0.1,0.3,0.4,0.5,0.7,0.5l3.8,0.5c0.8,0.1,1.1,1,0.5,1.6l-2.7,2.6
				c-0.2,0.2-0.3,0.5-0.3,0.8l0.6,3.7c0.1,0.8-0.7,1.3-1.3,1l-3.4-1.8c-0.3-0.1-0.6-0.1-0.9,0l-3.4,1.8c-0.7,0.4-1.5-0.2-1.3-1
				l0.6-3.7c0.1-0.3,0-0.6-0.3-0.8l-2.7-2.6c-0.5-0.5-0.2-1.5,0.5-1.6l3.8-0.5c0.3,0,0.6-0.2,0.7-0.5l1.7-3.4
				C268.5,188.1,269.5,188.1,269.8,188.8z"/>
		</g>
	</g>
</g>
<g id="Layer_23">
	<g id="Layer_25">
	</g>
</g>
<g id="Layer_22">
</g>
<g id="Layer_27">
</g>
<g id="Layer_17">
</g>
<g id="Layer_3">
</g>
<g id="Layer_15">
</g>
<g id="Layer_30">
</g>
<g id="Layer_16">
</g>
<g id="Layer_32">
</g>
<g id="Layer_33">
</g>
</svg>
