<?xml version="1.0" encoding="utf-8"?>
<!-- Generator: Adobe Illustrator 18.0.0, SVG Export Plug-In . SVG Version: 6.00 Build 0)  -->
<!DOCTYPE svg PUBLIC "-//W3C//DTD SVG 1.1//EN" "http://www.w3.org/Graphics/SVG/1.1/DTD/svg11.dtd">
<svg version="1.1" xmlns="http://www.w3.org/2000/svg" xmlns:xlink="http://www.w3.org/1999/xlink" x="0px" y="0px" width="122.9px"
	 height="119.2px" viewBox="0 0 122.9 119.2" enable-background="new 0 0 122.9 119.2" xml:space="preserve">
<g id="Layer_1">
	<g id="Layer_24">
	</g>
</g>
<g id="Layer_36" display="none">
</g>
<g id="Layer_14">
</g>
<g id="Layer_35">
</g>
<g id="Layer_2" display="none">
</g>
<g id="Layer_4">
</g>
<g id="Layer_7">
</g>
<g id="Layer_6">
</g>
<g id="Layer_8">
</g>
<g id="Layer_5">
</g>
<g id="Layer_11">
</g>
<g id="Layer_5_copy">
	<g id="Layer_10">
	</g>
</g>
<g id="Layer_13">
</g>
<g id="Layer_12" display="none">
</g>
<g id="Layer_19">
	<g id="Layer_20">
	</g>
	<g id="Layer_31">
	</g>
	<g id="Layer_26" display="none">
	</g>
	<g id="Layer_29">
	</g>
	<g id="Layer_28">
	</g>
	<g id="Layer_37">
	</g>
	<g id="Layer_21">
	</g>
</g>
<g id="Layer_18">
</g>
<g id="Layer_34">
</g>
<g id="Layer_23">
	<g id="Layer_25">
	</g>
</g>
<g id="Layer_22">
</g>
<g id="Layer_27">
</g>
<g id="Layer_17">
</g>
<g id="Layer_3">
</g>
<g id="Layer_15">
</g>
<g id="Layer_30">
</g>
<g id="Layer_16">
</g>
<g id="Layer_32">
</g>
<g id="Layer_33">
	<g>
		<path fill="#F8CFA4" d="M65.3,51.5c-0.9-1-0.9-2.5,0.1-3.4l28.8-27l7-6.6c1.6-1.5,0.6-4.1-1.6-4.1l-8.5-0.3
			c-1.3,0-2.4-1.1-2.3-2.5l0.2-5.3C89,1,90.1,0,91.4,0l29.2,0.9c1.3,0,2.4,1.1,2.3,2.5l-0.9,29.2c0,1.3-1.1,2.4-2.5,2.3l-5.3-0.2
			c-1.3,0-2.4-1.1-2.3-2.5l0.3-8.5c0.1-2.1-2.5-3.3-4-1.8l-7,6.6l-28.8,27c-1,0.9-2.5,0.9-3.4-0.1L65.3,51.5z"/>
		<circle fill="none" stroke="#F7C797" stroke-width="12.3921" stroke-miterlimit="10" cx="43.5" cy="75.7" r="37.3"/>
	</g>
</g>
</svg>
