<?xml version="1.0" encoding="utf-8"?>
<!-- Generator: Adobe Illustrator 18.0.0, SVG Export Plug-In . SVG Version: 6.00 Build 0)  -->
<!DOCTYPE svg PUBLIC "-//W3C//DTD SVG 1.1//EN" "http://www.w3.org/Graphics/SVG/1.1/DTD/svg11.dtd">
<svg version="1.1" xmlns="http://www.w3.org/2000/svg" xmlns:xlink="http://www.w3.org/1999/xlink" x="0px" y="0px" width="481.3px"
	 height="655.4px" viewBox="0 0 481.3 655.4" enable-background="new 0 0 481.3 655.4" xml:space="preserve">
<g id="Layer_1">
	<g id="Layer_24">
	</g>
</g>
<g id="Layer_36" display="none">
</g>
<g id="Layer_14">
</g>
<g id="Layer_35">
</g>
<g id="Layer_2" display="none">
</g>
<g id="Layer_4">
</g>
<g id="Layer_7">
</g>
<g id="Layer_6">
</g>
<g id="Layer_8">
</g>
<g id="Layer_5">
</g>
<g id="Layer_11">
</g>
<g id="Layer_5_copy">
	<g id="Layer_10">
	</g>
</g>
<g id="Layer_13">
</g>
<g id="Layer_12" display="none">
</g>
<g id="Layer_19">
	<g id="Layer_20">
	</g>
	<g id="Layer_31">
	</g>
	<g id="Layer_26" display="none">
	</g>
	<g id="Layer_29">
	</g>
	<g id="Layer_28">
	</g>
	<g id="Layer_37">
		<path fill="#314453" d="M445.2,655.4h-409c-20,0-36.2-16.2-36.2-36.2v-583C0,16.2,16.2,0,36.2,0h409c20,0,36.2,16.2,36.2,36.2v583
			C481.3,639.2,465.1,655.4,445.2,655.4z"/>
		<path fill="#C7E9F1" d="M448,631.4H34.5c-4.2,0-7.6-3.4-7.6-7.6V33.9c0-4.2,3.4-7.6,7.6-7.6H448c4.2,0,7.6,3.4,7.6,7.6v589.9
			C455.6,628,452.2,631.4,448,631.4z"/>
		<rect x="44.4" y="235.4" fill="#76B05B" width="93.5" height="396"/>
		<path fill="#83C167" d="M38.3,214.6h109.6c6.3,0,11.4,5.1,11.4,11.4v41.3c0,6.3-5.1,11.4-11.4,11.4H38.3
			c-6.3,0-11.4-5.1-11.4-11.4v-41.3C26.9,219.7,32,214.6,38.3,214.6z"/>
		<path fill="#76B05B" d="M79.4,160.4c11.8,11.8,7.9,34.8,7.9,34.8s-23,3.9-34.8-7.9s-7.9-34.8-7.9-34.8S67.6,148.6,79.4,160.4z"/>
		<path fill="#76B05B" d="M103.4,159.9c-11.7,11.7-7.8,34.5-7.8,34.5s22.8,3.9,34.5-7.8c11.7-11.7,7.8-34.5,7.8-34.5
			S115.1,148.2,103.4,159.9z"/>
		<rect x="351.1" y="442.3" fill="#699C51" width="75.6" height="188"/>
		<path fill="#76B05B" d="M346.2,425.5h88.6c5.1,0,9.3,4.1,9.3,9.3v33.4c0,5.1-4.1,9.3-9.3,9.3h-88.6c-5.1,0-9.3-4.1-9.3-9.3v-33.4
			C337,429.7,341.1,425.5,346.2,425.5z"/>
		<g>
			<g>
				<path fill="#CCCCCC" d="M365,628c0,1.4-1.2,2.6-2.6,2.6H132.2c-1.4,0-2.6-1.2-2.6-2.6V493.4c0-1.4,1.2-2.6,2.6-2.6h230.2
					c1.4,0,2.6,1.2,2.6,2.6V628z"/>
			</g>
			<g>
				<g>
					<g>
						<path fill="#E65B4C" d="M150.5,527.4c0-1.4-1.2-2.6-2.6-2.6h-15.7c-1.4,0-2.6,1.2-2.6,2.6v18.9c0,1.4,1.2,2.6,2.6,2.6h15.7
							c1.4,0,2.6-1.2,2.6-2.6V527.4z"/>
					</g>
					<g>
						<path fill="#C13C32" d="M174.2,500.9c0-1.4-1.2-2.6-2.6-2.6h-39.4c-1.4,0-2.6,1.2-2.6,2.6v18.9c0,1.4,1.2,2.6,2.6,2.6h39.4
							c1.4,0,2.6-1.2,2.6-2.6V500.9z"/>
					</g>
					<g>
						<path fill="#D34B46" d="M198.8,527.7c0-1.4-1.2-2.6-2.6-2.6h-39.4c-1.4,0-2.6,1.2-2.6,2.6v18.9c0,1.4,1.2,2.6,2.6,2.6h39.4
							c1.4,0,2.6-1.2,2.6-2.6V527.7z"/>
					</g>
					<g>
						<path fill="#E65B4C" d="M219.4,522.1c1.4,0,2.6-1.2,2.6-2.6v-18.6c0-1.4-1.2-2.6-2.6-2.6H180c-1.4,0-2.6,1.2-2.6,2.6v18.6
							c0,1.4,1.2,2.6,2.6,2.6H219.4z"/>
					</g>
					<g>
						<path fill="#D34B46" d="M246.8,527.7c0-1.4-1.2-2.6-2.6-2.6h-39.4c-1.4,0-2.6,1.2-2.6,2.6v18.9c0,1.4,1.2,2.6,2.6,2.6h39.4
							c1.4,0,2.6-1.2,2.6-2.6V527.7z"/>
					</g>
					<g>
						<path fill="#E65B4C" d="M268.4,554.5c0-1.4-1.2-2.6-2.6-2.6h-39.4c-1.4,0-2.6,1.2-2.6,2.6v18.9c0,1.4,1.2,2.6,2.6,2.6h39.4
							c1.4,0,2.6-1.2,2.6-2.6V554.5z"/>
					</g>
					<g>
						<path fill="#E65B4C" d="M148.8,581.6c0-1.4-1.2-2.6-2.6-2.6h-14c-1.4,0-2.6,1.2-2.6,2.6v18.9c0,1.4,1.2,2.6,2.6,2.6h14
							c1.4,0,2.6-1.2,2.6-2.6V581.6z"/>
					</g>
					<g>
						<path fill="#B02928" d="M172.6,555.1c0-1.4-1.2-2.6-2.6-2.6h-37.7c-1.4,0-2.6,1.2-2.6,2.6V574c0,1.4,1.2,2.6,2.6,2.6H170
							c1.4,0,2.6-1.2,2.6-2.6V555.1z"/>
					</g>
					<g>
						<path fill="#D34B46" d="M197.1,581.9c0-1.4-1.2-2.6-2.6-2.6h-39.4c-1.4,0-2.6,1.2-2.6,2.6v18.9c0,1.4,1.2,2.6,2.6,2.6h39.4
							c1.4,0,2.6-1.2,2.6-2.6V581.9z"/>
					</g>
					<g>
						<path fill="#C13C32" d="M220.3,554.8c0-1.4-1.2-2.6-2.6-2.6h-39.4c-1.4,0-2.6,1.2-2.6,2.6v18.9c0,1.4,1.2,2.6,2.6,2.6h39.4
							c1.4,0,2.6-1.2,2.6-2.6V554.8z"/>
					</g>
					<g>
						<path fill="#D34B46" d="M245.4,581.9c0-1.4-1.2-2.6-2.6-2.6h-39.4c-1.4,0-2.6,1.2-2.6,2.6v18.9c0,1.4,1.2,2.6,2.6,2.6h39.4
							c1.4,0,2.6-1.2,2.6-2.6V581.9z"/>
					</g>
					<g>
						<path fill="#B02928" d="M173.2,608.4c0-1.4-1.2-2.6-2.6-2.6h-38.4c-1.4,0-2.6,1.2-2.6,2.6v18.9c0,1.4,1.2,2.6,2.6,2.6h38.4
							c1.4,0,2.6-1.2,2.6-2.6V608.4z"/>
					</g>
					<g>
						<path fill="#C13C32" d="M176.3,627.6c0,1.4,1.2,2.6,2.6,2.6h39.4c1.4,0,2.6-1.2,2.6-2.6v-18.9c0-1.4-1.2-2.6-2.6-2.6h-39.4
							c-1.4,0-2.6,1.2-2.6,2.6V627.6z"/>
					</g>
					<g>
						<path fill="#E65B4C" d="M294.6,527.8c0-1.4-1.2-2.6-2.6-2.6h-39.4c-1.4,0-2.6,1.2-2.6,2.6v18.9c0,1.4,1.2,2.6,2.6,2.6H292
							c1.4,0,2.6-1.2,2.6-2.6V527.8z"/>
					</g>
					<g>
						<path fill="#B02928" d="M318.3,501.3c0-1.4-1.2-2.6-2.6-2.6h-39.4c-1.4,0-2.6,1.2-2.6,2.6v18.9c0,1.4,1.2,2.6,2.6,2.6h39.4
							c1.4,0,2.6-1.2,2.6-2.6V501.3z"/>
					</g>
					<g>
						<path fill="#C13C32" d="M270.1,501.3c0-1.4-1.2-2.6-2.6-2.6h-39.4c-1.4,0-2.6,1.2-2.6,2.6v18.9c0,1.4,1.2,2.6,2.6,2.6h39.4
							c1.4,0,2.6-1.2,2.6-2.6V501.3z"/>
					</g>
					<g>
						<path fill="#D34B46" d="M298.4,547c0,1.4,1.2,2.6,2.6,2.6h39.4c1.4,0,2.6-1.2,2.6-2.6v-18.9c0-1.4-1.2-2.6-2.6-2.6h-39.4
							c-1.4,0-2.6,1.2-2.6,2.6V547z"/>
					</g>
					<g>
						<path fill="#E65B4C" d="M321.5,519.9c0,1.4,1.2,2.6,2.6,2.6h38.4c1.4,0,2.6-1.2,2.6-2.6V501c0-1.4-1.2-2.6-2.6-2.6h-38.4
							c-1.4,0-2.6,1.2-2.6,2.6V519.9z"/>
					</g>
					<g>
						<path fill="#D34B46" d="M346.4,547c0,1.4,1.2,2.6,2.6,2.6h13.5c1.4,0,2.6-1.2,2.6-2.6v-18.9c0-1.4-1.2-2.6-2.6-2.6H349
							c-1.4,0-2.6,1.2-2.6,2.6V547z"/>
					</g>
					<g>
						<path fill="#E65B4C" d="M292.9,582c0-1.4-1.2-2.6-2.6-2.6h-39.4c-1.4,0-2.6,1.2-2.6,2.6v18.9c0,1.4,1.2,2.6,2.6,2.6h39.4
							c1.4,0,2.6-1.2,2.6-2.6V582z"/>
					</g>
					<g>
						<path fill="#B02928" d="M316.7,555.5c0-1.4-1.2-2.6-2.6-2.6h-39.4c-1.4,0-2.6,1.2-2.6,2.6v18.9c0,1.4,1.2,2.6,2.6,2.6h39.4
							c1.4,0,2.6-1.2,2.6-2.6V555.5z"/>
					</g>
					<g>
						<path fill="#D34B46" d="M296.7,601.2c0,1.4,1.2,2.6,2.6,2.6h39.4c1.4,0,2.6-1.2,2.6-2.6v-18.9c0-1.4-1.2-2.6-2.6-2.6h-39.4
							c-1.4,0-2.6,1.2-2.6,2.6V601.2z"/>
					</g>
					<g>
						<path fill="#C13C32" d="M319.9,574.1c0,1.4,1.2,2.6,2.6,2.6h39.4c1.4,0,2.6-1.2,2.6-2.6v-18.9c0-1.4-1.2-2.6-2.6-2.6h-39.4
							c-1.4,0-2.6,1.2-2.6,2.6V574.1z"/>
					</g>
					<g>
						<path fill="#D34B46" d="M345,601.2c0,1.4,1.2,2.6,2.6,2.6h14.9c1.4,0,2.6-1.2,2.6-2.6v-18.9c0-1.4-1.2-2.6-2.6-2.6h-14.9
							c-1.4,0-2.6,1.2-2.6,2.6V601.2z"/>
					</g>
					<g>
						<path fill="#B02928" d="M272.7,627.7c0,1.4,1.2,2.6,2.6,2.6h39.4c1.4,0,2.6-1.2,2.6-2.6v-18.9c0-1.4-1.2-2.6-2.6-2.6h-39.4
							c-1.4,0-2.6,1.2-2.6,2.6V627.7z"/>
					</g>
					<g>
						<path fill="#C13C32" d="M320.5,628c0,1.4,1.2,2.6,2.6,2.6h39.4c1.4,0,2.6-1.2,2.6-2.6v-18.9c0-1.4-1.2-2.6-2.6-2.6h-39.4
							c-1.4,0-2.6,1.2-2.6,2.6V628z"/>
					</g>
					<g>
						<path fill="#D34B46" d="M224.5,627.8c0,1.4,1.2,2.6,2.6,2.6h39.4c1.4,0,2.6-1.2,2.6-2.6v-18.9c0-1.4-1.2-2.6-2.6-2.6h-39.4
							c-1.4,0-2.6,1.2-2.6,2.6V627.8z"/>
					</g>
				</g>
			</g>
			<path fill="#B02928" d="M374.1,495.7H120c-1.5,0-2.7-1.2-2.7-2.7v-11.4c0-1.5,1.2-2.7,2.7-2.7h254.1c1.5,0,2.7,1.2,2.7,2.7v11.4
				C376.8,494.5,375.6,495.7,374.1,495.7z"/>
		</g>
		<path fill="#83C167" d="M61.8,75.4c-18.2,7.3-27.1,27.9-19.8,46.2s27.9,27.1,46.2,19.8L61.8,75.4z"/>
		<path fill="#83C167" d="M118.4,76.6c17.6,8.6,24.9,29.9,16.3,47.5c-8.6,17.6-29.9,24.9-47.5,16.3L118.4,76.6z"/>
		
			<rect x="73.5" y="72.4" transform="matrix(0.9415 -0.337 0.337 0.9415 -31.6649 32.2099)" fill="#EEEEEE" width="6.9" height="69.8"/>
		
			<rect x="100.2" y="73.6" transform="matrix(0.9247 0.3807 -0.3807 0.9247 49.1056 -31.3007)" fill="#83C167" width="6.9" height="69.8"/>
		
			<rect x="96.4" y="72.4" transform="matrix(0.9435 0.3312 -0.3312 0.9435 41.187 -27.0171)" fill="#EEEEEE" width="6.9" height="69.8"/>
		<line fill="none" x1="67.9" y1="74.6" x2="91" y2="138.1"/>
		<line fill="none" stroke="#76B05B" stroke-width="12" stroke-miterlimit="10" x1="90.1" y1="140.3" x2="90.1" y2="214.3"/>
		<g>
			<path fill="#E2D23D" d="M204.5,508.7h94.1c5.9,0,10.6,4.8,10.6,10.6v89.3c0,5.9-4.8,10.6-10.6,10.6h-94.1
				c-5.9,0-10.6-4.8-10.6-10.6v-89.3C193.8,513.4,198.6,508.7,204.5,508.7z"/>
			<text transform="matrix(1 0 0 1 219.5989 607.8478)" fill="#EEEEEE" font-family="'ProximaNovaS-Semibold'" font-size="152.411">?</text>
		</g>
		<g>
			<path fill="#59C4DC" d="M211.1,360.5l10.6,105.4c1.2,5.5,9,5.5,10.3,0l23.4-106.3L211.1,360.5z"/>
			
				<ellipse transform="matrix(0.9433 -0.332 0.332 0.9433 -50.0409 87.4058)" fill="none" cx="230.8" cy="190.2" rx="2.8" ry="2.4"/>
			<circle fill="#59C4DC" cx="237.7" cy="201.7" r="63.5"/>
			<circle fill="#59C4DC" cx="178.8" cy="225.4" r="10.5"/>
			<circle fill="#59C4DC" cx="297.4" cy="183.7" r="10.5"/>
			<circle fill="#1D758A" cx="200.8" cy="193.5" r="8.1"/>
			<circle fill="#1D758A" cx="265.4" cy="170.8" r="8.1"/>
			<circle fill="#C7E9F1" cx="198.9" cy="192.1" r="4.5"/>
			<circle fill="#C7E9F1" cx="263.1" cy="169.5" r="4.5"/>
			
				<ellipse transform="matrix(0.9433 -0.332 0.332 0.9433 -57.8526 79.9847)" fill="#B1DED1" cx="205.2" cy="209.3" rx="13.1" ry="3.2"/>
			
				<ellipse transform="matrix(0.9433 -0.332 0.332 0.9433 -46.7075 100.0203)" fill="#B1DED1" cx="269.4" cy="186.7" rx="13.1" ry="3.2"/>
			
				<ellipse transform="matrix(0.9433 -0.332 0.332 0.9433 -49.626 88.2552)" fill="#27ABCA" cx="233.5" cy="189.4" rx="10.1" ry="5.3"/>
			<polygon fill="#59C4DC" points="200.1,311.7 200.1,269.2 122.6,332.6 133.1,347.7 			"/>
			<circle fill="#59C4DC" cx="123.9" cy="341.6" r="10.9"/>
			<circle fill="#1D758A" cx="230.7" cy="192.2" r="3.2"/>
			<circle fill="#1D758A" cx="237.7" cy="189.8" r="3.2"/>
			<polygon fill="#59C4DC" points="309.1,307.9 298.3,270.2 387.1,288.3 385.2,306.7 			"/>
			<circle fill="#59C4DC" cx="390.5" cy="296.7" r="10.9"/>
			<circle fill="#48475A" cx="197.3" cy="290.5" r="21.3"/>
			<circle fill="#48475A" cx="300.3" cy="288.5" r="21.3"/>
			<path fill="#59C4DC" d="M291.6,361.4L281,466.8c-1.2,5.5-9,5.5-10.3,0l-23.4-106.3L291.6,361.4z"/>
			<path fill="#48475A" d="M326.2,407.8h-156c-4.5,0-7.8-4.3-6.7-8.7l29.3-117.8c0.8-3.1,3.5-5.3,6.7-5.3h92c3,0,5.7,2,6.6,5
				l34.7,117.8C334.1,403.3,330.8,407.8,326.2,407.8z"/>
			<circle fill="#B089BE" cx="166.1" cy="190.3" r="19.6"/>
			<circle fill="#B089BE" cx="180" cy="158.5" r="20.6"/>
			<circle fill="#B089BE" cx="213.8" cy="136" r="21.5"/>
			<circle fill="#B089BE" cx="251.5" cy="133.3" r="20.6"/>
			<circle fill="#B089BE" cx="285.8" cy="148.1" r="19.6"/>
			<path fill="#59C4DC" d="M221.4,464.5h10.9c0,6,0.6,15.2-8.4,15.2h-30.6c-5.1,0-5.9-8.4-0.9-9.7L221.4,464.5z"/>
			<path fill="#59C4DC" d="M281.3,465.4h-10.9c0,6-0.6,15.2,8.4,15.2h30.6c5.1,0,5.9-8.4,0.9-9.7L281.3,465.4z"/>
			<path fill="#59C4DC" d="M231.3,261.2l-6,19.9c-0.8,2.6,1.2,5.2,3.9,5.2H260c2.6,0,4.5-2.5,3.9-5l-4.8-19.9
				c-0.4-1.8-2.1-3.1-3.9-3.1h-19.9C233.4,258.3,231.8,259.5,231.3,261.2z"/>
			<circle fill="#59C4DC" cx="244.3" cy="280.8" r="14.5"/>
			<circle fill="#B089BE" cx="161.4" cy="160.3" r="20.6"/>
			<circle fill="#B089BE" cx="173.6" cy="134.2" r="20.6"/>
			<circle fill="#B089BE" cx="206.9" cy="112.9" r="20.6"/>
			<circle fill="#B089BE" cx="245.1" cy="109.1" r="20.6"/>
			<circle fill="#B089BE" cx="277.5" cy="124.6" r="20.6"/>
			<g>
				<path fill="#C7E9F1" d="M178.1,342.1c0,0,0.6-0.1,1.6-0.2c1-0.1,2.5-0.3,4.5-0.5c1.9-0.2,4.3-0.4,7-0.6c2.7-0.2,5.7-0.5,9-0.7
					c3.3-0.2,6.9-0.4,10.7-0.6c3.8-0.2,7.8-0.4,11.9-0.5c4.1-0.1,8.4-0.3,12.7-0.3c4.3,0,8.7-0.1,13.1-0.1c4.4,0,8.8,0.1,13.1,0.1
					c4.3,0,8.6,0.2,12.7,0.3c4.1,0.1,8.1,0.3,11.9,0.5c3.8,0.1,7.4,0.4,10.7,0.6c3.3,0.2,6.3,0.4,9,0.6c2.7,0.2,5,0.4,7,0.6
					c1.9,0.2,3.4,0.4,4.5,0.5c1,0.1,1.6,0.2,1.6,0.2v0.4c0,0-35.2,0.1-70.5,0.2c-35.2-0.1-70.5-0.2-70.5-0.2V342.1z"/>
			</g>
			<circle fill="#1D758A" cx="245.9" cy="220" r="7.2"/>
		</g>
		<g>
			<circle fill="#EEEEEE" cx="315.2" cy="68.8" r="19.4"/>
			<circle fill="#EEEEEE" cx="345.2" cy="66" r="18.6"/>
			<circle fill="#EEEEEE" cx="330.3" cy="84.8" r="17.7"/>
			<circle fill="#EEEEEE" cx="348.4" cy="78.4" r="18.6"/>
			<circle fill="#EEEEEE" cx="374.1" cy="76.2" r="18.6"/>
		</g>
		<g>
			<circle fill="#EEEEEE" cx="364.8" cy="214.1" r="17.2"/>
			<circle fill="#EEEEEE" cx="386.1" cy="212.7" r="16.5"/>
			<circle fill="#EEEEEE" cx="371.1" cy="205.3" r="15.7"/>
			<circle fill="#EEEEEE" cx="393" cy="198.9" r="16.5"/>
			<circle fill="#EEEEEE" cx="408.5" cy="212.1" r="16.5"/>
		</g>
	</g>
	<g id="Layer_21">
	</g>
</g>
<g id="Layer_18">
</g>
<g id="Layer_34">
</g>
<g id="Layer_23">
	<g id="Layer_25">
	</g>
</g>
<g id="Layer_22">
</g>
<g id="Layer_27">
</g>
<g id="Layer_17">
</g>
<g id="Layer_3">
</g>
<g id="Layer_15">
</g>
<g id="Layer_30">
</g>
<g id="Layer_16">
</g>
<g id="Layer_32">
</g>
<g id="Layer_33">
</g>
</svg>
